<svg xmlns="http://www.w3.org/2000/svg" xmlns:xlink="http://www.w3.org/1999/xlink" width="640" height="640">
<defs>
    <path d="M510.89 358.17l2.97.44 2.93.6 2.9.77 2.85.94 2.81 1.09 2.77 1.25 2.72 1.4 2.67 1.55 2.61 1.69 2.56 1.84 2.51 1.97 2.44 2.11 2.38 2.23 2.32 2.37 2.25 2.49 2.18 2.61 2.11 2.73 2.04 2.84 1.96 2.95 1.88 3.06 1.8 3.17 1.72 3.26 1.63 3.36 1.55 3.45 1.45 3.55 1.36 3.63 1.27 3.71 1.16 3.79 1.07 3.87.97 3.94.86 4.01.75 4.07.65 4.14.53 4.2.42 4.25.3 4.3.18 4.35.06 4.4-.06 4.4-.18 4.35-.3 4.3-.42 4.25-.53 4.2-.65 4.13-.75 4.08-.86 4.01-.97 3.94-1.07 3.87-1.16 3.79-1.27 3.71-1.36 3.63-1.45 3.54-1.55 3.46-1.63 3.36-1.72 3.26-1.8 3.16-1.88 3.06-1.96 2.96-2.04 2.84-2.11 2.73-.17.2.82.16 1.47.32 1.49.36 1.53.4 1.55.44 1.58.48 1.6.52 1.62.56 1.64.59 1.66.64 1.67.67 1.68.71 1.7.75 1.69.78 1.69.82 1.65.83 1.61.84 1.57.86 1.53.87 1.49.88 1.44.9 1.4.89 1.36.91 1.3.91 1.26.91 1.2.92 1.15.91 1.09.91 1.04.91.98.9.92.9.86.89.79.88.73.87.67.86.59.84.53.82.46.81.38.79.31.77.23.75.16.72.08.7-.01.67-.08.64-.17.61-.26.58-.34.55-.42.49-.49.45-.56.41-.64.36-.71.32-.77.27-.84.22-.89.19-.96.14-1.02.1-1.07.05-1.12.01-1.18-.03-1.22-.07-1.27-.12-1.31-.15-1.35-.2-1.39-.24-1.43-.28-1.47-.32-1.49-.36-1.53-.4-1.55-.44-1.58-.48-1.6-.52-1.62-.56-1.64-.59-1.66-.64-1.67-.67-1.68-.71-1.69-.75-1.7-.78-1.69-.82-1.64-.83-1.61-.84-.96-.52.48.74.95 1.55.93 1.59.92 1.63.88 1.64.85 1.63.8 1.62.76 1.62.71 1.6.68 1.58.62 1.57.59 1.55.54 1.52.49 1.5.45 1.47.41 1.44.35 1.4.31 1.38.27 1.33.22 1.3.17 1.25.12 1.21.07 1.16.03 1.12-.03 1.06-.07 1.01-.12.95-.17.89-.22.84-.28.77-.32.7-.38.64-.42.56-.48.5-.54.41-.58.34-.63.26-.67.17-.7.09-.74.01-.76-.07-.8-.15-.82-.23-.86-.31-.87-.38-.9-.45-.91-.52-.94-.59-.95-.66-.97-.72-.98-.79-.99-.85-1-.91-1-.97-1.02-1.02-1.01-1.09-1.02-1.13-1.02-1.19-1.02-1.24-1.01-1.29-1.01-1.34-1-1.38-.99-1.43-.98-1.47-.96-1.51-.96-1.55-.93-1.59-.92-1.63-.88-1.64-.85-1.63-.8-1.63-.66-1.41-.08 1.42-.13 1.82-.17 1.83-.2 1.83-.24 1.81-.26 1.77-.3 1.75-.32 1.71-.35 1.67-.38 1.64-.4 1.6-.42 1.55-.45 1.51-.47 1.47-.49 1.41-.52 1.37-.53 1.31-.54 1.25-.57 1.2-.58 1.14-.59 1.08-.61 1.01-.62.95-.63.88-.65.8-.65.74-.66.66-.67.59-.67.5-.68.42-.68.34-.68.26-.69.17-.69.07-.68-.01-.68-.11-.66-.2-.64-.29-.62-.37-.6-.45-.58-.54-.56-.62-.54-.69-.51-.77-.5-.84-.46-.91-.45-.97-.42-1.04-.39-1.11-.37-1.16-.34-1.22-.31-1.28-.29-1.33-.26-1.39-.23-1.43-.19-1.47-.17-1.53-.14-1.56-.11-1.6-.07-1.64-.04-1.68-.01-1.7.03-1.74.06-1.77.1-1.79.09-1.3-.38.88-.78 1.66-.81 1.67-.85 1.66-.87 1.63-.88 1.58-.9 1.55-.92 1.51-.92 1.46-.94 1.42-.95 1.38-.96 1.33-.96 1.27-.97 1.23-.97 1.18-.97 1.12-.97 1.06-.96 1.01-.96.95-.95.88-.95.83-.93.76-.93.69-.91.63-.89.55-.88.49-.85.41-.84.33-.82.26-.78.19-.77.1-.73.02-.71-.06-.67-.15-.64-.23-.6-.32-.55-.4-.5-.47-.45-.55-.41-.62-.35-.69-.31-.76-.25-.82-.21-.89-.17-.95-.11-1-.07-1.06-.02-1.12.02-1.16.07-1.22.12-1.25.16-1.31.21-1.34.25-1.38.29-1.42.35-1.46.38-1.48.43-1.52.48-1.54.51-1.57.56-1.59.61-1.61.64-1.62.69-1.65.73-1.65.78-1.67.81-1.67.85-1.66.86-1.62.89-1.59.9-1.54.91-1.51.93-1.47.94-1.42.95-1.37.96-1.33.04-.06-.8-.26-2.82-1.09-2.76-1.25-2.72-1.4-2.67-1.55-2.61-1.69-2.56-1.84-2.51-1.97-2.44-2.11-2.38-2.24-2.32-2.36-2.25-2.49-2.18-2.61-2.11-2.73-2.04-2.84-1.96-2.96-1.88-3.06-1.8-3.16-1.72-3.26-1.63-3.36-1.55-3.46-1.45-3.54-1.36-3.63-1.27-3.71-1.17-3.79-1.06-3.87-.97-3.94-.86-4.01-.75-4.08-.65-4.13-.53-4.2-.42-4.25-.3-4.3-.18-4.35-.07-4.4.07-4.4.18-4.35.3-4.3.42-4.25.53-4.2.65-4.14.75-4.07.86-4.01.97-3.94 1.06-3.87 1.17-3.79 1.27-3.71 1.36-3.63 1.45-3.55 1.55-3.45 1.63-3.36 1.72-3.26 1.8-3.17 1.88-3.06 1.96-2.95 2.04-2.84 2.11-2.73 2.18-2.61 2.25-2.49 2.32-2.37 2.38-2.23 2.44-2.11 2.51-1.97 2.56-1.84 2.61-1.69 2.67-1.55 2.72-1.4 2.76-1.25 2.82-1.09 2.85-.94 2.89-.77 2.94-.6 2.96-.44 3.01-.27 3.03-.09 3.03.09 3 .27z" id="a"/>
    <path d="M126.94 340.26l2.97.44 2.93.61 2.9.77 2.85.94 2.81 1.09 2.77 1.25 2.71 1.4 2.67 1.54 2.62 1.7 2.56 1.83 2.5 1.97 2.45 2.11 2.38 2.24 2.32 2.37 2.25 2.49 2.18 2.61 2.11 2.73 2.04 2.84 1.96 2.95 1.88 3.06 1.8 3.16 1.72 3.27 1.63 3.36 1.54 3.45 1.46 3.54 1.36 3.63 1.26 3.71 1.17 3.8 1.07 3.86.96 3.94.86 4.01.76 4.08.64 4.14.54 4.19.41 4.25.31 4.31.18 4.35.06 4.39-.06 4.4-.18 4.35-.31 4.31-.41 4.25-.54 4.19-.64 4.14-.76 4.08-.86 4.01-.96 3.94-1.07 3.86-1.17 3.8-1.26 3.71-1.36 3.63-1.46 3.54-1.54 3.45-1.63 3.36-1.72 3.27-1.8 3.16-1.88 3.06-1.96 2.95-2.04 2.84-2.11 2.73-2.18 2.61-2.25 2.49-2.32 2.37-2.38 2.24-2.45 2.11-2.5 1.97-2.56 1.83-2.62 1.7-2.67 1.54-2.71 1.4-2.77 1.25-2.81 1.09-.81.27.05.06.95 1.32.95 1.38.94 1.42.93 1.46.92 1.51.9 1.55.88 1.59.87 1.62.84 1.66.82 1.67.77 1.67.73 1.65.69 1.64.65 1.63.6 1.61.56 1.59.52 1.56.47 1.55.43 1.51.39 1.49.34 1.45.3 1.42.25 1.38.21 1.35.16 1.3.11 1.26.07 1.21.03 1.17-.02 1.11-.07 1.06-.12 1.01-.16.95-.21.88-.26.83-.31.75-.35.7-.4.62-.45.55-.5.47-.55.4-.6.32-.64.23-.68.15-.7.06-.74-.02-.76-.11-.79-.18-.81-.26-.84-.34-.86-.41-.87-.48-.9-.56-.91-.62-.92-.7-.94-.76-.94-.82-.95-.89-.96-.95-.97-1-.97-1.07-.97-1.12-.97-1.17-.96-1.23-.97-1.28-.95-1.33-.95-1.37-.94-1.42-.93-1.47-.91-1.5-.91-1.55-.88-1.59-.87-1.62-.84-1.66-.82-1.67-.77-1.67-.39-.87.1 1.3.09 1.79.07 1.76.02 1.74-.01 1.71-.04 1.67-.07 1.64-.11 1.61-.13 1.56-.17 1.52-.2 1.48-.23 1.43-.26 1.38-.28 1.33-.32 1.28-.34 1.22-.36 1.17-.4 1.1-.42 1.04-.44.98-.47.91-.49.84-.52.76-.53.7-.56.61-.58.54-.61.46-.62.37-.64.29-.66.2-.67.1-.69.02-.69-.08-.68-.16-.69-.26-.68-.34-.68-.42-.67-.51-.67-.58-.66-.66-.65-.74-.64-.81-.63-.88-.62-.94-.61-1.02-.6-1.07-.58-1.14-.56-1.2-.55-1.26-.53-1.31-.51-1.36-.49-1.42-.47-1.46-.45-1.51-.43-1.56-.4-1.59-.38-1.64-.35-1.68-.32-1.71-.29-1.74-.27-1.78-.23-1.8-.21-1.83-.16-1.84-.14-1.81-.07-1.42-.67 1.41-.8 1.62-.84 1.64-.89 1.64-.91 1.62-.94 1.59-.95 1.55-.97 1.51-.98 1.48-.99 1.42-1 1.39-1.01 1.33-1.01 1.29-1.01 1.24-1.02 1.19-1.02 1.14-1.02 1.08-1.01 1.03-1.01.97-1 .91-.99.85-.98.79-.97.72-.95.66-.93.59-.92.52-.9.45-.87.38-.85.3-.83.23-.79.15-.77.08-.73-.01-.71-.09-.66-.17-.63-.26-.59-.34-.53-.42-.48-.49-.43-.57-.37-.63-.33-.71-.27-.77-.22-.83-.18-.89-.12-.96-.07-1-.02-1.07.02-1.11.08-1.16.12-1.21.17-1.26.22-1.29.26-1.34.31-1.37.36-1.41.4-1.44.45-1.47.5-1.49.54-1.53.58-1.54.63-1.57.67-1.58.72-1.6.75-1.62.81-1.62.84-1.64.89-1.64.91-1.62.94-1.59.95-1.55.47-.74-.95.52-1.61.84-1.65.83-1.68.81-1.7.79-1.69.75-1.69.71-1.67.67-1.65.63-1.64.6-1.63.56-1.6.52-1.58.47-1.55.44-1.52.41-1.5.36-1.46.32-1.43.28-1.39.23-1.36.2-1.31.16-1.27.11-1.22.08-1.17.03-1.13-.01-1.07-.06-1.01-.09-.96-.15-.9-.18-.84-.23-.77-.27-.7-.31-.64-.37-.57-.4-.49-.45-.42-.5-.34-.54-.25-.58-.17-.61-.09-.65v-.67l.08-.69.15-.73.23-.74.31-.77.39-.79.45-.81.53-.83.6-.84.66-.85.73-.87.8-.88.86-.89.91-.9.98-.9 1.04-.91 1.1-.91 1.15-.92 1.2-.91 1.25-.91 1.31-.91 1.35-.91 1.4-.9 1.45-.89 1.48-.88 1.54-.87 1.57-.86 1.61-.85 1.65-.83 1.68-.81 1.7-.78 1.69-.75 1.68-.71 1.67-.67 1.66-.64 1.64-.6 1.62-.55 1.6-.52 1.58-.48 1.56-.44 1.52-.4 1.5-.36 1.46-.32.82-.16-.17-.21-2.11-2.73-2.03-2.84-1.97-2.95-1.88-3.06-1.8-3.16-1.72-3.27-1.63-3.36-1.54-3.45-1.46-3.54-1.36-3.63-1.26-3.71-1.17-3.8-1.07-3.86-.96-3.94-.86-4.01-.76-4.08-.64-4.14-.53-4.19-.42-4.25-.31-4.31-.18-4.35-.06-4.4.06-4.39.18-4.35.31-4.31.42-4.25.53-4.19.64-4.14.76-4.08.86-4.01.96-3.94 1.07-3.86 1.17-3.8 1.26-3.71 1.36-3.63 1.46-3.54 1.54-3.45 1.63-3.36 1.72-3.27 1.8-3.16 1.88-3.06 1.97-2.95 2.03-2.84 2.11-2.73 2.18-2.61 2.26-2.49 2.31-2.37 2.39-2.24 2.44-2.11 2.5-1.97 2.56-1.83 2.62-1.7 2.67-1.54 2.71-1.4 2.77-1.25 2.81-1.09 2.86-.94 2.89-.77 2.93-.61 2.97-.44 3-.26 3.04-.09 3.03.09 3 .26z" id="b"/>
    <path d="M602.75 308.18c0 139.41-124.45 252.6-277.74 252.6-153.28 0-277.73-113.19-277.73-252.6 0-139.42 124.45-252.6 277.73-252.6 153.29 0 277.74 113.18 277.74 252.6z" id="c"/><path d="M286.24 78.32l-.25 2.45-.35 2.42-.45 2.38-.54 2.35-.63 2.32-.72 2.28-.81 2.24-.89 2.2-.98 2.15-1.06 2.11-1.14 2.06-1.21 2.02-1.29 1.96-1.37 1.91-1.44 1.86-1.5 1.79-1.58 1.74-1.64 1.68-1.7 1.62-1.77 1.55-1.83 1.48-1.88 1.42-1.94 1.34-1.99 1.27-2.05 1.2-2.09 1.12-2.15 1.04-2.18.97-2.24.88-2.27.79-2.32.71-2.35.62-2.39.53-2.42.44-2.45.35-2.49.25-2.51.15-2.54.05-2.54-.05-2.51-.15-2.48-.25-2.46-.35-2.42-.44-2.39-.53-2.35-.62-2.31-.71-2.28-.79-2.23-.88-2.19-.97-2.14-1.04-2.1-1.12-2.04-1.2-1.99-1.27-1.94-1.34-1.89-1.42-1.82-1.48-1.77-1.55-1.7-1.62-1.65-1.68-1.57-1.74-1.51-1.79-1.43-1.86-1.37-1.91-1.29-1.96-1.22-2.02-1.14-2.06-1.06-2.11-.97-2.15-.9-2.2-.81-2.24-.72-2.28-.63-2.32-.54-2.35-.44-2.38-.35-2.42-.25-2.45-.16-2.47-.05-2.5.05-2.5.16-2.47.25-2.45.35-2.41.44-2.39.54-2.35.63-2.32.72-2.27.81-2.24.9-2.2.97-2.16 1.06-2.11 1.14-2.06 1.22-2.01 1.29-1.97 1.37-1.91 1.43-1.85 1.51-1.8 1.57-1.74 1.65-1.68 1.7-1.61 1.77-1.55 1.82-1.49 1.89-1.41 1.94-1.35 1.99-1.27 2.04-1.2 2.1-1.12 2.14-1.04 2.19-.96 2.23-.88 2.28-.8 2.31-.71 2.35-.62 2.39-.53 2.42-.44 2.46-.34 2.48-.25 2.51-.15 2.54-.05 2.54.05 2.51.15 2.49.25 2.45.34 2.42.44 2.39.53 2.35.62 2.32.71 2.27.8 2.24.88 2.18.96 2.15 1.04 2.09 1.12 2.05 1.2 1.99 1.27 1.94 1.35 1.88 1.41 1.83 1.49 1.77 1.55 1.7 1.61 1.64 1.68 1.58 1.74 1.5 1.8 1.44 1.85 1.37 1.91 1.29 1.97 1.21 2.01 1.14 2.06 1.06 2.11.98 2.16.89 2.2.81 2.24.72 2.27.63 2.32.54 2.35.45 2.39.35 2.41.25 2.45.15 2.47.05 2.5-.05 2.5-.15 2.47z" id="d"/>
    <path d="M273.6 52.1l-.26 1.23-.35 1.2-.44 1.16-.53 1.12-.61 1.08-.7 1.04-.77.99-.84.93-.92.88-.98.82-1.04.76-1.1.69-1.15.62-1.21.55-1.25.48-1.29.39-1.34.32-1.37.23-1.4.13-1.43.05-1.43-.05-1.41-.13-1.37-.23-1.33-.32-1.3-.39-1.25-.48-1.2-.55-1.16-.62-1.1-.69-1.04-.76-.98-.82-.91-.88-.85-.93-.77-.99-.69-1.04-.62-1.08-.53-1.12-.44-1.16-.35-1.2-.25-1.23-.16-1.26-.05-1.28.05-1.28.16-1.26.25-1.23.35-1.2.44-1.16.53-1.12.62-1.08.69-1.04.77-.99.85-.93.91-.88.98-.82 1.04-.76 1.1-.69 1.16-.62 1.2-.55 1.25-.48 1.3-.39 1.33-.32 1.37-.22 1.41-.14 1.43-.05 1.43.05 1.4.14 1.37.22 1.34.32 1.29.39 1.25.48 1.21.55 1.15.62 1.1.69 1.04.76.98.82.92.88.84.93.77.99.7 1.04.61 1.08.53 1.12.44 1.16.35 1.2.26 1.23.15 1.26.06 1.28-.06 1.28-.15 1.26z" id="e"/>
    <path d="M482.23 78.32l-.25 2.45-.35 2.42-.45 2.38-.53 2.35-.64 2.32-.72 2.28-.8 2.24-.9 2.2-.97 2.15-1.06 2.11-1.14 2.06-1.22 2.02-1.29 1.96-1.37 1.91-1.43 1.86-1.51 1.79-1.58 1.74-1.64 1.68-1.7 1.62-1.77 1.55-1.82 1.48-1.89 1.42-1.94 1.34-1.99 1.27-2.05 1.2-2.09 1.12-2.14 1.04-2.19.97-2.23.88-2.28.79-2.31.71-2.36.62-2.38.53-2.43.44-2.45.35-2.48.25-2.52.15-2.53.05-2.54-.05-2.51-.15-2.49-.25-2.45-.35-2.42-.44-2.39-.53-2.36-.62-2.31-.71-2.27-.79-2.24-.88-2.19-.97-2.14-1.04-2.09-1.12-2.05-1.2-1.99-1.27-1.94-1.34-1.89-1.42-1.82-1.48-1.77-1.55-1.7-1.62-1.64-1.68-1.58-1.74-1.5-1.79-1.44-1.86-1.37-1.91-1.29-1.96-1.22-2.02-1.13-2.06-1.06-2.11-.98-2.15-.89-2.2-.81-2.24-.72-2.28-.63-2.32-.54-2.35-.45-2.38-.35-2.42-.25-2.45-.15-2.47-.06-2.5.06-2.5.15-2.47.25-2.45.35-2.41.45-2.39.54-2.35.63-2.32.72-2.27.81-2.24.89-2.2.98-2.16 1.06-2.11 1.13-2.06 1.22-2.01 1.29-1.97 1.37-1.91 1.44-1.85 1.5-1.8 1.58-1.74 1.64-1.68 1.7-1.61 1.77-1.55 1.82-1.49 1.89-1.41 1.94-1.35 1.99-1.27 2.05-1.2 2.09-1.12 2.14-1.04 2.19-.96 2.24-.88 2.27-.8 2.31-.71 2.36-.62 2.39-.53 2.42-.44 2.45-.34 2.49-.25 2.51-.15 2.54-.05 2.53.05 2.52.15 2.48.25 2.45.34 2.43.44 2.38.53 2.36.62 2.31.71 2.28.8 2.23.88 2.19.96 2.14 1.04 2.09 1.12 2.05 1.2 1.99 1.27 1.94 1.35 1.89 1.41 1.82 1.49 1.77 1.55 1.7 1.61 1.64 1.68 1.58 1.74 1.51 1.8 1.43 1.85 1.37 1.91 1.29 1.97 1.22 2.01 1.14 2.06 1.06 2.11.97 2.16.9 2.2.8 2.24.72 2.27.64 2.32.53 2.35.45 2.39.35 2.41.25 2.45.16 2.47.05 2.5-.05 2.5-.16 2.47z" id="f"/>
    <path d="M469.59 52.1l-.25 1.23-.35 1.2-.45 1.16-.53 1.12-.61 1.08-.69 1.04-.78.99-.84.93-.91.88-.98.82-1.04.76-1.1.69-1.16.62-1.2.55-1.26.48-1.29.39-1.34.32-1.37.23-1.4.13-1.43.05-1.43-.05-1.4-.13-1.38-.23-1.33-.32-1.3-.39-1.25-.48-1.2-.55-1.16-.62-1.1-.69-1.04-.76-.98-.82-.91-.88-.85-.93-.77-.99-.69-1.04-.62-1.08-.53-1.12-.44-1.16-.35-1.2-.25-1.23-.16-1.26-.05-1.28.05-1.28.16-1.26.25-1.23.35-1.2.44-1.16.53-1.12.62-1.08.69-1.04.77-.99.85-.93.91-.88.98-.82 1.04-.76 1.1-.69 1.16-.62 1.2-.55 1.25-.48 1.3-.39 1.33-.32 1.38-.22 1.4-.14 1.43-.05 1.43.05 1.4.14 1.37.22 1.34.32 1.29.39 1.26.48 1.2.55 1.16.62 1.1.69 1.04.76.98.82.91.88.84.93.78.99.69 1.04.61 1.08.53 1.12.45 1.16.35 1.2.25 1.23.16 1.26.05 1.28-.05 1.28-.16 1.26z" id="g"/>
    <path d="M229.2 239.84l-.84 3.29-.65 3.35-.48 3.38-.29 3.42-.1 3.45.1 3.46.29 3.42.48 3.38.65 3.34.84 3.3 1.02 3.25 1.19 3.21 1.35 3.15 1.52 3.1 1.69 3.04 1.84 2.98 1.99 2.91 2.15 2.86 2.29 2.78 2.43 2.72 2.57 2.64 2.71 2.56 2.83 2.49 2.97 2.4 3.09 2.32 3.21 2.24 3.32 2.14 3.44 2.05 3.55 1.96 3.65 1.86 3.75 1.76 3.85 1.66 3.95 1.55 4.03 1.44 4.12 1.33 4.21 1.22 4.28 1.1 4.36.98 4.43.86 4.49.73 4.57.61 4.62.47 4.67.35 4.73.21 4.78.07 4.78-.07 4.73-.21 4.68-.35 4.62-.47 4.56-.61 4.5-.73 4.42-.86 4.36-.98 4.28-1.1 4.21-1.22 4.12-1.33 4.03-1.44 3.95-1.55 3.85-1.66 1.78-.83-.81.95-2.44 2.65-2.55 2.57-2.67 2.48-2.78 2.4-2.89 2.31-2.99 2.21-3.1 2.12-3.19 2.02-3.29 1.92-3.37 1.82-3.47 1.71-3.55 1.6-3.63 1.49-3.71 1.37-3.78 1.26-3.86 1.14-3.92 1.01-3.99.89-4.04.75-4.11.63-4.16.49-4.21.36-4.25.21-4.3.08-4.3-.08-4.26-.21-4.21-.36-4.16-.49-4.1-.63-4.05-.75-3.99-.89-3.92-1.01-3.85-1.14-3.79-1.26-3.71-1.37-3.63-1.49-3.55-1.6-3.46-1.71-3.38-1.82-3.29-1.92-3.19-2.02-3.09-2.12-3-2.21-2.88-2.31-2.79-2.4-2.66-2.48-2.56-2.57-2.43-2.65-2.32-2.72-2.19-2.81-2.06-2.87-1.93-2.95-1.79-3.01-1.66-3.08-1.51-3.14-1.37-3.2-1.22-3.25-1.07-3.31-.92-3.36-.75-3.4-.59-3.45-.43-3.5-.26-3.53-.09-3.57.09-3.57.26-3.53.43-3.49.59-3.45.75-3.41.92-3.36 1.07-3.3 1.22-3.26 1.37-3.2 1.51-3.14 1.66-3.07 1.79-3.02 1.93-2.94 2.06-2.88.8-1.02-1.29 3-1.19 3.2-1.02 3.26z" id="h"/>
</defs>
<use xlink:href="#a" fill="#073011"/>
<use xlink:href="#b" fill="#073011"/>
<use xlink:href="#c" fill="#145c26"/>
<use xlink:href="#d" fill="#010504"/>
<use xlink:href="#e" fill="#f8f8f8"/>
<use xlink:href="#f" fill="#010504"/>
<use xlink:href="#g" fill="#f8f8f8"/>
<use xlink:href="#h" fill="#010504"/>
</svg>