<?xml version="1.0" encoding="UTF-8" standalone="no"?>
    <!DOCTYPE svg PUBLIC "-//W3C//DTD SVG 1.1//EN" "http://www.w3.org/Graphics/SVG/1.1/DTD/svg11.dtd">
        <svg version="1.1" xmlns="http://www.w3.org/2000/svg" xmlns:xlink="http://www.w3.org/1999/xlink" preserveAspectRatio="xMidYMid meet" viewBox="0 0 240 240" width="240" height="240">
            <defs>
                <path d="M193.88 96.32C193.88 137.02 157.68 170.06 113.08 170.06C68.49 170.06 32.28 137.02 32.28 96.32C32.28 55.62 68.49 22.58 113.08 22.58C157.68 22.58 193.88 55.62 193.88 96.32Z" id="a46i2AhFiP"></path>
                <path d="M101.67 30.39L101.43 31.65L101.1 32.88L100.69 34.08L100.2 35.23L99.62 36.34L98.97 37.41L98.25 38.42L97.46 39.39L96.61 40.29L95.7 41.13L94.72 41.91L93.7 42.62L92.62 43.27L91.49 43.83L90.32 44.32L89.11 44.73L87.87 45.05L86.59 45.29L85.28 45.43L83.94 45.48L82.6 45.43L81.29 45.29L80.01 45.05L78.76 44.73L77.55 44.32L76.38 43.83L75.26 43.27L74.18 42.62L73.15 41.91L72.18 41.13L71.27 40.29L70.41 39.39L69.62 38.42L68.9 37.41L68.25 36.34L67.68 35.23L67.19 34.08L66.77 32.88L66.45 31.65L66.21 30.39L66.06 29.09L66.01 27.77L66.06 26.45L66.21 25.15L66.45 23.89L66.77 22.66L67.19 21.46L67.68 20.31L68.25 19.19L68.9 18.13L69.62 17.12L70.41 16.15L71.27 15.25L72.18 14.41L73.15 13.63L74.18 12.92L75.26 12.27L76.38 11.71L77.55 11.22L78.76 10.81L80.01 10.49L81.29 10.25L82.6 10.11L83.94 10.06L85.28 10.11L86.59 10.25L87.87 10.49L89.11 10.81L90.32 11.22L91.49 11.71L92.62 12.27L93.7 12.92L94.72 13.63L95.7 14.41L96.61 15.25L97.46 16.15L98.25 17.12L98.97 18.13L99.62 19.19L100.2 20.31L100.69 21.46L101.1 22.66L101.43 23.89L101.67 25.15L101.81 26.45L101.86 27.77L101.81 29.09L101.81 29.09L101.67 30.39Z" id="eLreHNAC"></path>
                <path d="M97.42 23.36L96.55 24.38L95.42 25.16L94.09 25.67L92.6 25.85L91.12 25.67L89.79 25.16L88.66 24.38L87.78 23.36L87.22 22.16L87.02 20.82L87.22 19.49L87.78 18.29L88.66 17.27L89.79 16.49L91.12 15.98L92.6 15.8L94.09 15.98L95.42 16.49L96.55 17.27L97.42 18.29L97.99 19.49L98.19 20.82L97.99 22.16L97.99 22.16L97.42 23.36Z" id="b1qVwwkjN"></path>
                <path d="M158.69 30.39L158.45 31.65L158.12 32.88L157.71 34.08L157.21 35.23L156.64 36.34L155.99 37.41L155.27 38.42L154.48 39.39L153.63 40.29L152.71 41.13L151.74 41.91L150.71 42.62L149.64 43.27L148.51 43.83L147.34 44.32L146.13 44.73L144.89 45.05L143.6 45.29L142.29 45.43L140.96 45.48L139.62 45.43L138.31 45.29L137.03 45.05L135.78 44.73L134.57 44.32L133.4 43.83L132.28 43.27L131.2 42.62L130.17 41.91L129.2 41.13L128.29 40.29L127.43 39.39L126.64 38.42L125.92 37.41L125.27 36.34L124.7 35.23L124.21 34.08L123.79 32.88L123.47 31.65L123.23 30.39L123.08 29.09L123.03 27.77L123.08 26.45L123.23 25.15L123.47 23.89L123.79 22.66L124.21 21.46L124.7 20.31L125.27 19.19L125.92 18.13L126.64 17.12L127.43 16.15L128.29 15.25L129.2 14.41L130.17 13.63L131.2 12.92L132.28 12.27L133.4 11.71L134.57 11.22L135.78 10.81L137.03 10.49L138.31 10.25L139.62 10.11L140.96 10.06L142.29 10.11L143.6 10.25L144.89 10.49L146.13 10.81L147.34 11.22L148.51 11.71L149.64 12.27L150.71 12.92L151.74 13.63L152.71 14.41L153.63 15.25L154.48 16.15L155.27 17.12L155.99 18.13L156.64 19.19L157.21 20.31L157.71 21.46L158.12 22.66L158.45 23.89L158.69 25.15L158.83 26.45L158.88 27.77L158.83 29.09L158.83 29.09L158.69 30.39Z" id="ak8Fyz8fK"></path>
                <path d="M154.44 23.36L153.57 24.38L152.44 25.16L151.11 25.67L149.62 25.85L148.14 25.67L146.81 25.16L145.68 24.38L144.8 23.36L144.24 22.16L144.04 20.82L144.24 19.49L144.8 18.29L145.68 17.27L146.81 16.49L148.14 15.98L149.62 15.8L151.11 15.98L152.44 16.49L153.57 17.27L154.44 18.29L155.01 19.49L155.21 20.82L155.01 22.16L155.01 22.16L154.44 23.36Z" id="e3uhA0uy5O"></path>
                <path d="M85.37 75.84L85.07 76.9L84.83 77.98L84.66 79.07L84.56 80.18L84.52 81.3L84.56 82.42L84.66 83.53L84.83 84.62L85.07 85.7L85.37 86.76L85.73 87.81L86.15 88.84L86.64 89.84L87.18 90.83L87.78 91.8L88.43 92.74L89.13 93.66L89.89 94.55L90.7 95.42L91.56 96.26L92.47 97.08L93.42 97.86L94.41 98.62L95.45 99.34L96.53 100.03L97.66 100.69L98.81 101.31L100.01 101.9L101.24 102.45L102.51 102.96L103.81 103.43L105.14 103.87L106.5 104.26L107.89 104.61L109.31 104.92L110.75 105.18L112.21 105.4L113.7 105.57L115.2 105.69L116.73 105.77L118.27 105.79L119.82 105.77L121.34 105.69L122.85 105.57L124.34 105.4L125.8 105.18L127.24 104.92L128.66 104.61L130.04 104.26L131.4 103.87L132.73 103.43L134.03 102.96L135.3 102.45L136.53 101.9L136.55 101.89L136.33 102.16L135.51 103.04L134.66 103.89L133.76 104.71L132.81 105.49L131.83 106.24L130.81 106.96L129.75 107.63L128.65 108.27L127.53 108.87L126.36 109.43L125.17 109.94L123.94 110.42L122.69 110.84L121.41 111.23L120.11 111.56L118.78 111.85L117.42 112.08L116.05 112.27L114.66 112.41L113.24 112.49L111.82 112.52L110.39 112.49L108.97 112.41L107.58 112.27L106.21 112.08L104.85 111.85L103.53 111.56L102.22 111.23L100.94 110.84L99.69 110.42L98.46 109.94L97.27 109.43L96.11 108.87L94.98 108.27L93.88 107.63L92.82 106.96L91.8 106.24L90.82 105.49L89.88 104.71L88.98 103.89L88.12 103.04L87.31 102.16L86.54 101.25L85.82 100.31L85.15 99.34L84.53 98.34L83.96 97.32L83.45 96.28L82.99 95.22L82.59 94.13L82.24 93.02L81.96 91.89L81.73 90.75L81.57 89.59L81.47 88.41L81.44 87.23L81.47 86.04L81.57 84.86L81.73 83.7L81.96 82.56L82.24 81.43L82.59 80.32L82.99 79.23L83.45 78.17L83.96 77.13L84.53 76.11L85.15 75.11L85.82 74.15L86.23 73.61L86.15 73.77L85.73 74.8L85.73 74.8L85.37 75.84Z" id="cIY59XEYD"></path>
                <path d="M55.83 105.74L56.87 105.92L57.89 106.18L58.9 106.51L59.89 106.9L60.86 107.37L61.8 107.89L62.73 108.48L63.63 109.13L64.51 109.84L65.36 110.61L66.19 111.43L66.98 112.3L67.75 113.23L68.49 114.21L69.19 115.23L69.87 116.3L70.5 117.42L71.1 118.58L71.67 119.78L72.2 121.02L72.68 122.3L73.13 123.61L73.54 124.96L73.9 126.34L74.21 127.75L74.49 129.18L74.71 130.65L74.89 132.14L75.02 133.65L75.1 135.19L75.12 136.74L75.1 138.3L75.02 139.83L74.89 141.34L74.71 142.83L74.49 144.3L74.21 145.74L73.9 147.15L73.54 148.52L73.13 149.87L72.68 151.18L72.2 152.46L71.67 153.7L71.1 154.9L70.5 156.06L69.87 157.18L69.19 158.25L68.49 159.28L67.75 160.25L66.98 161.18L66.19 162.05L65.36 162.88L64.51 163.64L63.63 164.35L62.73 165L61.8 165.59L60.86 166.12L59.89 166.58L58.9 166.97L58.6 167.07L59.15 167.83L60.11 169.36L61.01 171.03L61.8 172.76L62.43 174.43L62.9 176.02L63.21 177.49L63.35 178.82L63.33 179.97L63.13 180.92L62.75 181.62L62.2 182.05L61.49 182.18L60.68 182.01L59.79 181.55L58.83 180.84L57.85 179.88L56.84 178.72L55.85 177.36L54.9 175.84L53.99 174.16L53.4 172.86L53.49 174.12L53.49 175.9L53.36 177.54L53.13 179.03L52.79 180.33L52.36 181.4L51.83 182.23L51.23 182.77L50.55 183L49.84 182.9L49.14 182.47L48.46 181.76L47.82 180.78L47.23 179.57L46.7 178.15L46.25 176.55L45.89 174.81L45.64 172.95L45.54 171.44L45.47 171.62L44.6 173.31L43.63 174.95L42.61 176.43L41.56 177.75L40.51 178.88L39.48 179.79L38.5 180.47L37.59 180.89L36.77 181.03L36.07 180.88L35.53 180.42L35.19 179.71L35.03 178.76L35.06 177.6L35.26 176.28L35.63 174.82L36.17 173.25L36.87 171.6L37.73 169.91L38.68 168.3L36.97 169.18L35.17 169.97L33.42 170.61L31.76 171.09L30.21 171.42L28.81 171.59L27.59 171.59L26.59 171.42L25.84 171.09L25.37 170.57L25.22 169.91L25.39 169.13L25.85 168.27L26.58 167.35L27.56 166.39L28.76 165.42L30.17 164.45L31.76 163.5L33.5 162.61L35.3 161.82L37.05 161.19L38.72 160.7L39.83 160.46L39.65 160.25L38.92 159.28L38.21 158.25L37.54 157.18L36.9 156.06L36.3 154.9L35.74 153.7L35.21 152.46L34.72 151.18L34.28 149.87L33.87 148.52L33.51 147.15L33.19 145.74L32.92 144.3L32.69 142.83L32.52 141.34L32.39 139.83L32.31 138.3L32.28 136.74L32.31 135.19L32.39 133.65L32.52 132.14L32.69 130.65L32.92 129.18L33.19 127.75L33.51 126.34L33.87 124.96L34.28 123.61L34.72 122.3L35.21 121.02L35.74 119.78L36.3 118.58L36.9 117.42L37.54 116.3L38.21 115.23L38.92 114.21L39.65 113.23L40.42 112.3L41.22 111.43L42.04 110.61L42.9 109.84L43.77 109.13L44.68 108.48L45.6 107.89L46.55 107.37L47.52 106.9L48.51 106.51L49.52 106.18L50.54 105.92L51.58 105.74L52.63 105.62L53.7 105.58L54.77 105.62L55.83 105.74Z" id="b2VoXC7uQK"></path>
                <path d="M167.53 110.96L168.57 111.15L169.59 111.41L170.6 111.73L171.59 112.13L172.56 112.59L173.51 113.12L174.43 113.71L175.33 114.36L176.21 115.07L177.06 115.83L177.89 116.65L178.69 117.53L179.45 118.46L180.19 119.43L180.9 120.46L181.57 121.53L182.21 122.65L182.81 123.81L183.37 125.01L183.9 126.25L184.39 127.52L184.83 128.84L185.24 130.18L185.6 131.56L185.92 132.97L186.19 134.41L186.41 135.88L186.59 137.37L186.72 138.88L186.8 140.41L186.82 141.97L186.8 143.52L186.72 145.06L186.59 146.57L186.41 148.06L186.19 149.52L185.92 150.96L185.6 152.37L185.24 153.75L184.83 155.1L184.39 156.41L183.9 157.69L183.37 158.93L182.81 160.13L182.21 161.29L181.57 162.4L180.9 163.48L180.19 164.5L179.45 165.48L179.28 165.69L180.39 165.93L182.06 166.41L183.81 167.05L185.61 167.84L187.35 168.73L188.94 169.67L190.35 170.64L191.55 171.62L192.53 172.58L193.26 173.5L193.72 174.36L193.89 175.13L193.74 175.8L193.27 176.31L192.51 176.65L191.51 176.82L190.3 176.81L188.9 176.65L187.35 176.32L185.69 175.83L183.94 175.2L182.14 174.41L180.42 173.53L181.38 175.14L182.24 176.83L182.94 178.48L183.48 180.05L183.85 181.51L184.05 182.83L184.08 183.98L183.92 184.93L183.57 185.65L183.04 186.1L182.34 186.26L181.52 186.12L180.61 185.7L179.62 185.02L178.6 184.11L177.55 182.98L176.5 181.66L175.47 180.17L174.5 178.53L173.64 176.84L173.57 176.66L173.46 178.17L173.21 180.04L172.86 181.78L172.41 183.38L171.88 184.79L171.29 186.01L170.65 186.98L169.97 187.7L169.27 188.12L168.56 188.23L167.88 188L167.28 187.45L166.75 186.63L166.32 185.55L165.98 184.26L165.74 182.77L165.62 181.12L165.62 179.35L165.71 178.09L165.11 179.39L164.21 181.06L163.26 182.59L162.26 183.95L161.26 185.11L160.27 186.06L159.32 186.78L158.43 187.23L157.61 187.41L156.91 187.28L156.35 186.85L155.98 186.14L155.78 185.2L155.76 184.05L155.9 182.72L156.21 181.24L156.68 179.65L157.31 177.98L158.1 176.26L159 174.58L159.96 173.06L160.51 172.3L160.21 172.2L159.22 171.81L158.25 171.34L157.3 170.82L156.38 170.23L155.48 169.58L154.6 168.87L153.75 168.1L152.92 167.28L152.12 166.41L151.36 165.48L150.62 164.5L149.91 163.48L149.24 162.4L148.6 161.29L148 160.13L147.44 158.93L146.91 157.69L146.42 156.41L145.98 155.1L145.57 153.75L145.21 152.37L144.89 150.96L144.62 149.52L144.4 148.06L144.22 146.57L144.09 145.06L144.01 143.52L143.99 141.97L144.01 140.41L144.09 138.88L144.22 137.37L144.4 135.88L144.62 134.41L144.89 132.97L145.21 131.56L145.57 130.18L145.98 128.84L146.42 127.52L146.91 126.25L147.44 125.01L148 123.81L148.6 122.65L149.24 121.53L149.91 120.46L150.62 119.43L151.36 118.46L152.12 117.53L152.92 116.65L153.75 115.83L154.6 115.07L155.48 114.36L156.38 113.71L157.3 113.12L158.25 112.59L159.22 112.13L160.21 111.73L161.22 111.41L162.24 111.15L163.28 110.96L164.34 110.85L165.41 110.81L166.47 110.85L167.53 110.96Z" id="b1NXH1Y3I"></path>
            </defs>
            <g>
                <g>
                    <g><use xlink:href="#a46i2AhFiP" opacity="1" fill="#145c26" fill-opacity="1"></use></g>
                    <g><use xlink:href="#eLreHNAC" opacity="1" fill="#010504" fill-opacity="1"></use></g>
                    <g><use xlink:href="#b1qVwwkjN" opacity="1" fill="#f8f8f8" fill-opacity="1"></use></g>
                    <g><use xlink:href="#ak8Fyz8fK" opacity="1" fill="#010504" fill-opacity="1"></use></g>
                    <g><use xlink:href="#e3uhA0uy5O" opacity="1" fill="#f8f8f8" fill-opacity="1"></use></g>
                    <g><use xlink:href="#cIY59XEYD" opacity="1" fill="#010504" fill-opacity="1"></use></g>
                    <g><use xlink:href="#b2VoXC7uQK" opacity="1" fill="#073011" fill-opacity="1"></use></g>
                    <g><use xlink:href="#b1NXH1Y3I" opacity="1" fill="#073011" fill-opacity="1"></use></g>
                </g>
            </g>
        </svg>