<?xml version="1.0" encoding="UTF-8" standalone="no"?>
<!DOCTYPE svg PUBLIC "-//W3C//DTD SVG 1.1//EN" "http://www.w3.org/Graphics/SVG/1.1/DTD/svg11.dtd">
<svg version="1.1" xmlns="http://www.w3.org/2000/svg" xmlns:xlink="http://www.w3.org/1999/xlink" preserveAspectRatio="xMidYMid meet" viewBox="55 70 200 200" width="300" height="200">
    <defs>
        <path d="M79.24 76.73L81.6 77.1L83.93 77.55L86.22 78.11L88.49 78.75L90.71 79.48L92.9 80.29L95.05 81.19L97.16 82.17L99.23 83.23L101.25 84.37L103.22 85.58L105.15 86.87L107.02 88.23L108.84 89.66L110.61 91.16L112.32 92.73L113.97 94.35L115.56 96.05L117.08 97.8L118.54 99.61L119.94 101.47L120.03 101.61L121.07 100.6L121.38 100.22L122.88 98.55L124.45 96.93L126.08 95.38L127.77 93.89L129.51 92.46L131.32 91.11L133.17 89.82L135.08 88.61L137.04 87.47L139.04 86.4L141.1 85.41L143.19 84.5L145.33 83.67L147.51 82.92L149.73 82.26L151.99 81.69L154.28 81.2L156.6 80.8L158.95 80.5L161.34 80.29L163.75 80.17L166.18 80.15L168.62 80.24L171.03 80.41L173.41 80.69L175.77 81.06L178.1 81.51L180.39 82.06L182.65 82.7L184.88 83.42L187.06 84.22L189.21 85.11L191.32 86.08L193.38 87.12L195.39 88.24L197.36 89.43L199.28 90.7L201.15 92.04L202.96 93.44L204.72 94.91L206.42 96.44L208.06 98.04L209.65 99.7L211.17 101.41L212.62 103.18L214.01 105.01L215.33 106.89L216.57 108.82L217.75 110.8L218.85 112.83L219.88 114.9L220.83 117.01L221.69 119.16L222.48 121.36L223.18 123.59L223.79 125.85L224.32 128.15L224.76 130.49L225.11 132.85L225.36 135.23L225.52 137.65L225.58 140.08L225.54 142.52L225.4 144.93L225.17 147.31L224.84 149.66L224.43 151.98L223.92 154.27L223.32 156.52L222.64 158.73L221.87 160.9L221.03 163.03L220.1 165.12L219.09 167.17L218.01 169.16L216.85 171.11L215.61 173.01L214.31 174.85L212.94 176.64L211.5 178.38L210.56 179.43L210.84 179.71L203.33 187.05L203.54 187.27L120.09 269.61L119.5 269.02L119.25 269.26L62.77 211.52L28.52 176.81L28.66 176.68L27.99 175.91L26.53 174.1L25.13 172.24L23.81 170.32L22.55 168.35L21.36 166.32L20.25 164.25L19.22 162.13L18.26 159.97L17.38 157.77L16.59 155.52L15.88 153.24L15.25 150.92L14.71 148.56L14.26 146.17L13.91 143.75L13.64 141.31L13.47 138.83L13.4 136.34L13.43 133.84L13.56 131.37L13.78 128.92L14.09 126.51L14.5 124.13L14.99 121.79L15.58 119.48L16.25 117.2L17.01 114.97L17.85 112.78L18.76 110.64L19.76 108.54L20.84 106.48L21.99 104.48L23.21 102.53L24.5 100.63L25.87 98.79L27.3 97.01L28.79 95.28L30.35 93.62L31.98 92.02L33.66 90.48L35.4 89.01L37.19 87.62L39.04 86.29L40.94 85.03L42.9 83.85L44.9 82.75L46.94 81.73L49.04 80.78L51.17 79.92L53.35 79.15L55.56 78.46L57.82 77.86L60.1 77.35L62.42 76.93L64.78 76.6L67.16 76.38L69.57 76.25L72 76.22L74.44 76.29L76.85 76.46L76.85 76.46L79.24 76.73Z" id="heart"></path>
        <path d="M111.23 148.87L110.91 150.12L110.47 151.33L109.93 152.48L109.27 153.58L108.53 154.61L107.68 155.57L106.75 156.45L105.75 157.25L104.66 157.96L103.51 158.58L102.3 159.1L101.03 159.52L99.71 159.82L98.35 160.01L96.95 160.07L95.55 160.01L94.19 159.82L92.87 159.52L91.6 159.1L90.39 158.58L89.24 157.96L88.16 157.25L87.15 156.45L86.22 155.57L85.38 154.61L84.63 153.58L83.97 152.48L83.43 151.33L82.99 150.12L82.67 148.87L82.48 147.57L82.41 146.24L82.48 144.91L82.67 143.61L82.99 142.36L83.43 141.15L83.97 140L84.63 138.91L85.38 137.88L86.22 136.92L87.15 136.03L88.16 135.23L89.24 134.52L90.39 133.9L91.6 133.38L92.87 132.96L94.19 132.66L95.55 132.47L96.95 132.41L98.35 132.47L99.71 132.66L101.03 132.96L102.3 133.38L103.51 133.9L104.66 134.52L105.75 135.23L106.75 136.03L107.68 136.92L108.53 137.88L109.27 138.91L109.93 140L110.47 141.15L110.91 142.36L111.23 143.61L111.42 144.91L111.49 146.24L111.42 147.57L111.42 147.57L111.23 148.87Z" id="eye_black"></path>
        <path d="M107.63 143.13L106.65 143.98L105.41 144.54L103.98 144.74L102.55 144.54L101.31 143.98L100.32 143.13L99.68 142.06L99.45 140.82L99.68 139.58L100.32 138.5L101.31 137.65L102.55 137.09L103.98 136.89L105.41 137.09L106.65 137.65L107.63 138.5L108.28 139.58L108.51 140.82L108.28 142.06L108.28 142.06L107.63 143.13Z" id="eye_white"></path>
        <path d="M157.48 148.87L157.16 150.12L156.72 151.33L156.18 152.48L155.52 153.58L154.78 154.61L153.93 155.57L153 156.45L152 157.25L150.91 157.96L149.76 158.58L148.55 159.1L147.28 159.52L145.96 159.82L144.6 160.01L143.2 160.07L141.8 160.01L140.44 159.82L139.12 159.52L137.85 159.1L136.64 158.58L135.49 157.96L134.41 157.25L133.4 156.45L132.47 155.57L131.63 154.61L130.88 153.58L130.22 152.48L129.68 151.33L129.24 150.12L128.92 148.87L128.73 147.57L128.66 146.24L128.73 144.91L128.92 143.61L129.24 142.36L129.68 141.15L130.22 140L130.88 138.91L131.63 137.88L132.47 136.92L133.4 136.03L134.41 135.23L135.49 134.52L136.64 133.9L137.85 133.38L139.12 132.96L140.44 132.66L141.8 132.47L143.2 132.41L144.6 132.47L145.96 132.66L147.28 132.96L148.55 133.38L149.76 133.9L150.91 134.52L152 135.23L153 136.03L153.93 136.92L154.78 137.88L155.52 138.91L156.18 140L156.72 141.15L157.16 142.36L157.48 143.61L157.67 144.91L157.74 146.24L157.67 147.57L157.67 147.57L157.48 148.87Z" id="eye_black2"></path>
        <path d="M153.88 143.13L152.9 143.98L151.66 144.54L150.23 144.74L148.8 144.54L147.56 143.98L146.57 143.13L145.93 142.06L145.7 140.82L145.93 139.58L146.57 138.5L147.56 137.65L148.8 137.09L150.23 136.89L151.66 137.09L152.9 137.65L153.88 138.5L154.53 139.58L154.76 140.82L154.53 142.06L154.53 142.06L153.88 143.13Z" id="eye_white2"></path>
        <path d="M97.81 184.84L97.6 185.89L97.47 186.96L97.43 188.05L97.47 189.13L97.6 190.2L97.81 191.25L98.1 192.28L98.47 193.3L98.92 194.28L99.44 195.25L100.03 196.19L100.69 197.1L101.41 197.99L102.21 198.84L103.06 199.66L103.97 200.45L104.94 201.2L105.97 201.92L107.04 202.6L108.17 203.24L109.35 203.83L110.57 204.38L111.84 204.89L113.14 205.35L114.49 205.77L115.87 206.13L117.29 206.44L118.74 206.7L120.21 206.9L121.72 207.05L123.25 207.14L124.8 207.17L126.35 207.14L127.88 207.05L129.39 206.9L130.87 206.7L132.31 206.44L133.73 206.13L135.11 205.77L136.46 205.35L137.76 204.89L139.03 204.38L139.63 204.11L139.28 204.51L138.4 205.39L137.47 206.23L136.48 207.03L135.43 207.77L134.34 208.47L133.19 209.13L131.99 209.72L130.76 210.27L129.48 210.76L128.16 211.19L126.8 211.55L125.41 211.86L123.99 212.1L122.54 212.28L121.06 212.39L119.56 212.42L118.06 212.39L116.59 212.28L115.14 212.1L113.72 211.86L112.33 211.55L110.97 211.19L109.65 210.76L108.37 210.27L107.13 209.72L105.94 209.13L104.79 208.47L103.69 207.77L102.65 207.03L101.66 206.23L100.72 205.39L99.85 204.51L99.04 203.59L98.29 202.64L97.61 201.64L97 200.62L96.47 199.56L96.01 198.47L95.62 197.36L95.32 196.22L95.1 195.06L94.97 193.87L94.93 192.67L94.97 191.47L95.1 190.29L95.32 189.12L95.62 187.98L96.01 186.87L96.47 185.78L97 184.73L97.61 183.7L98.29 182.71L98.82 182.04L98.47 182.8L98.1 183.81L98.1 183.81L97.81 184.84Z" id="lips"></path>
    </defs>
    <g>
        <g>
            <g class="heart">
                <use class="heart" xlink:href="#heart" opacity="1" fill="#ab2020" fill-opacity="1"></use>
            </g>
            <g class="eye_black1">
                <use class="eye_black1" xlink:href="#eye_black" opacity="1" fill="#010504" fill-opacity="1"></use>
            </g>
            <g class="eye_white1">
                <use class="eye_white1" xlink:href="#eye_white" opacity="1" fill="#f8f8f8" fill-opacity="1"></use>
            </g>
            <g class="eye_black2">
                <use class="eye_black2" xlink:href="#eye_black2" opacity="1" fill="#010504" fill-opacity="1"></use>
            </g>
            <g class="eye_white2">
                <use class="eye_white2" xlink:href="#eye_white2" opacity="1" fill="#f8f8f8" fill-opacity="1"></use>
            </g>
            <g class="lips">
                <use class="lips" xlink:href="#lips" opacity="1" fill="#010504" fill-opacity="1"></use>
            </g>
        </g>
    </g>
</svg>