<?xml version="1.0" encoding="UTF-8" standalone="no"?>
<!DOCTYPE svg PUBLIC "-//W3C//DTD SVG 1.1//EN" "http://www.w3.org/Graphics/SVG/1.1/DTD/svg11.dtd">
<svg version="1.1" xmlns="http://www.w3.org/2000/svg" xmlns:xlink="http://www.w3.org/2000/xlink" preserveAspectRatio="xMidYMid meet" viewBox="0 0 640 640" width="640" height="640"><defs><path d="" id="c2laUvptjT"></path>
<path d="M184.29 356.9C153.73 271.75 199.94 177.13 287.43 145.73C374.92 114.32 470.76 157.96 501.33 243.1C531.89 328.25 485.67 422.87 398.18 454.27C310.69 485.68 214.85 442.04 184.29 356.9Z" id="bcsesNftL"></path>
<linearGradient id="gradientb8q4eB2Ps0" gradientUnits="userSpaceOnUse" x1="409.91" y1="266.61" x2="38.52" y2="502.72">
<stop style="stop-color: #14177d;stop-opacity: 1" offset="0%"></stop>
<stop style="stop-color: #010000;stop-opacity: 1" offset="100%"></stop></linearGradient>
<path d="M202.46 267.59L208.87 268.11L215.23 268.89L221.51 269.91L227.73 271.17L233.87 272.67L239.92 274.4L245.89 276.36L251.75 278.55L257.52 280.95L263.18 283.56L268.72 286.39L274.15 289.42L279.45 292.66L284.62 296.09L289.65 299.71L294.54 303.52L299.28 307.52L303.87 311.69L308.29 316.04L312.55 320.56L316.63 325.25L320.54 330.1L324.26 335.1L327.79 340.26L331.13 345.56L334.27 351.01L337.19 356.6L339.9 362.33L342.4 368.18L344.66 374.16L346.7 380.26L348.5 386.48L350.05 392.82L351.36 399.26L352.41 405.81L353.19 412.39L353.7 418.94L353.94 425.46L353.92 431.93L353.63 438.36L353.09 444.73L352.3 451.05L352.03 452.64L350.53 452.7L344.01 452.69L337.54 452.41L331.13 451.89L324.77 451.11L318.49 450.09L312.27 448.83L306.13 447.33L300.08 445.6L294.11 443.64L288.25 441.45L282.48 439.05L276.82 436.44L271.28 433.61L265.85 430.58L260.55 427.34L255.38 423.91L250.35 420.29L245.46 416.48L240.72 412.48L236.13 408.31L231.71 403.96L227.45 399.44L223.37 394.75L219.46 389.9L215.74 384.9L212.21 379.74L208.87 374.44L205.73 368.99L202.81 363.4L200.1 357.67L197.6 351.82L195.34 345.84L193.3 339.74L191.5 333.52L189.95 327.18L188.64 320.74L187.59 314.19L186.81 307.61L186.3 301.06L186.06 294.54L186.08 288.07L186.37 281.64L186.91 275.27L187.7 268.95L187.97 267.36L189.47 267.3L195.99 267.31L202.46 267.59Z" id="c3DAGk96SC"></path>
<linearGradient id="gradienth3cKALnQT" gradientUnits="userSpaceOnUse" x1="302.19" y1="349.94" x2="120.55" y2="436.76">
<stop style="stop-color: #0e6e3e;stop-opacity: 1" offset="0%"></stop>
<stop style="stop-color: #010000;stop-opacity: 1" offset="100%"></stop></linearGradient>
<path d="M344.44 211.04L349.27 215.35L353.9 219.83L358.32 224.46L362.53 229.24L366.53 234.15L370.33 239.21L373.91 244.39L377.28 249.68L380.43 255.09L383.37 260.61L386.08 266.22L388.57 271.92L390.85 277.71L392.89 283.57L394.71 289.5L396.3 295.49L397.67 301.54L398.8 307.64L399.69 313.77L400.36 319.94L400.78 326.14L400.97 332.35L400.91 338.58L400.62 344.81L400.08 351.03L399.29 357.25L398.26 363.45L396.98 369.63L395.44 375.78L393.66 381.88L391.62 387.94L389.32 393.95L386.76 399.9L383.95 405.79L380.87 411.6L377.53 417.32L373.96 422.91L370.2 428.3L366.25 433.49L362.13 438.48L357.83 443.27L353.37 447.85L348.75 452.23L347.54 453.29L346.34 452.38L341.31 448.24L336.48 443.93L331.85 439.45L327.43 434.82L323.22 430.04L319.21 425.12L315.42 420.07L311.84 414.89L308.47 409.6L305.32 404.19L302.38 398.67L299.67 393.06L297.17 387.36L294.9 381.57L292.85 375.71L291.03 369.78L289.44 363.79L288.08 357.74L286.95 351.64L286.05 345.51L285.39 339.34L284.97 333.14L284.78 326.93L284.83 320.7L285.13 314.47L285.67 308.25L286.46 302.03L287.49 295.83L288.77 289.65L290.3 283.5L292.09 277.4L294.13 271.33L296.43 265.32L298.98 259.37L301.8 253.49L304.87 247.68L308.21 241.96L311.78 236.37L315.55 230.98L319.49 225.79L323.62 220.8L327.92 216.01L332.38 211.43L337 207.05L338.21 205.99L339.41 206.89L344.44 211.04Z" id="dBlN8c4gc"></path>
<linearGradient id="gradientaeHvJ70Zm" gradientUnits="userSpaceOnUse" x1="374.14" y1="342.28" x2="178.64" y2="294.2"><stop style="stop-color: #0e6e3e;stop-opacity: 1" offset="0%"></stop><stop style="stop-color: #010000;stop-opacity: 1" offset="100%"></stop></linearGradient><path d="M494.2 260.57L495.32 266.95L496.18 273.32L496.78 279.7L497.13 286.06L497.23 292.4L497.08 298.72L496.69 305L496.05 311.25L495.17 317.45L494.06 323.59L492.72 329.68L491.15 335.7L489.35 341.65L487.32 347.52L485.08 353.31L482.62 359L479.94 364.59L477.05 370.08L473.96 375.45L470.66 380.7L467.15 385.83L463.45 390.82L459.55 395.68L455.46 400.39L451.18 404.94L446.72 409.34L442.06 413.57L437.23 417.62L432.22 421.5L427.04 425.19L421.68 428.68L416.15 431.98L410.46 435.07L404.61 437.94L398.6 440.6L392.43 443.03L386.17 445.2L379.87 447.1L373.56 448.73L367.23 450.1L360.89 451.19L354.55 452.03L348.21 452.61L346.6 452.69L346.22 451.24L344.84 444.87L343.72 438.49L342.86 432.11L342.25 425.74L341.91 419.38L341.81 413.03L341.96 406.72L342.35 400.43L342.99 394.19L343.86 387.99L344.97 381.84L346.32 375.75L347.89 369.73L349.69 363.78L351.71 357.91L353.96 352.13L356.42 346.44L359.1 340.85L361.98 335.36L365.08 329.99L368.38 324.73L371.88 319.61L375.58 314.61L379.48 309.76L383.57 305.05L387.85 300.49L392.32 296.1L396.97 291.87L401.81 287.81L406.82 283.94L412 280.25L417.36 276.75L422.88 273.46L428.57 270.37L434.43 267.49L440.44 264.84L446.61 262.41L452.87 260.23L459.16 258.33L465.48 256.7L471.81 255.34L478.15 254.24L484.49 253.41L490.82 252.83L492.44 252.75L492.81 254.2L494.2 260.57Z" id="efgWKX1jR"></path><linearGradient id="gradientc3PHHpw4Pj" gradientUnits="userSpaceOnUse" x1="436.24" y1="382.01" x2="312.52" y2="223.18"><stop style="stop-color: #0e6e3e;stop-opacity: 1" offset="0%"></stop><stop style="stop-color: #010000;stop-opacity: 1" offset="100%"></stop></linearGradient><path d="M377.84 158.85L378.2 158.89L378.23 159.22L378.32 160.67L378.34 162.12L378.31 163.55L378.22 164.98L378.08 166.4L377.88 167.8L377.63 169.19L377.32 170.56L376.97 171.91L376.56 173.25L376.1 174.57L375.59 175.86L375.04 177.14L374.43 178.39L373.78 179.61L373.09 180.81L372.35 181.98L371.57 183.12L370.74 184.23L369.87 185.3L368.96 186.35L368.01 187.36L367.02 188.33L365.99 189.27L364.93 190.16L363.82 191.02L362.69 191.83L361.51 192.6L360.31 193.33L359.07 194.01L357.8 194.65L356.5 195.23L355.16 195.77L353.8 196.25L352.41 196.68L350.99 197.06L349.55 197.38L348.09 197.64L346.64 197.84L345.19 197.99L343.75 198.07L342.31 198.09L340.88 198.05L339.46 197.96L339.11 197.92L339.07 197.59L338.99 196.14L338.96 194.69L338.99 193.26L339.08 191.83L339.23 190.41L339.42 189.01L339.68 187.62L339.98 186.25L340.34 184.9L340.75 183.56L341.2 182.24L341.71 180.95L342.27 179.67L342.87 178.42L343.52 177.2L344.22 176L344.96 174.83L345.74 173.69L346.57 172.58L347.44 171.5L348.35 170.46L349.3 169.45L350.28 168.48L351.31 167.54L352.38 166.65L353.48 165.79L354.62 164.98L355.79 164.2L357 163.48L358.24 162.8L359.51 162.16L360.81 161.58L362.14 161.04L363.5 160.56L364.89 160.13L366.31 159.75L367.76 159.43L369.21 159.17L370.67 158.96L372.12 158.82L373.56 158.74L374.99 158.72L376.42 158.76L377.84 158.85Z" id="b4CqX9ewpN"></path><linearGradient id="gradientbbwOvccaH" gradientUnits="userSpaceOnUse" x1="361.32" y1="185.44" x2="339.55" y2="146.13"><stop style="stop-color: #f4efea;stop-opacity: 1" offset="0%"></stop><stop style="stop-color: #010000;stop-opacity: 1" offset="100%"></stop></linearGradient><path d="M370 182.16L371.39 182.32L372.77 182.52L374.15 182.78L375.52 183.1L376.89 183.47L378.24 183.9L379.58 184.39L380.91 184.93L382.23 185.53L383.53 186.19L384.81 186.91L386.07 187.68L387.3 188.51L388.48 189.37L389.62 190.28L390.71 191.22L391.76 192.21L392.76 193.23L393.72 194.28L393.95 194.56L393.74 194.82L392.79 195.92L391.8 196.98L390.78 197.99L389.72 198.95L388.64 199.87L387.52 200.74L386.37 201.56L385.2 202.33L384 203.06L382.78 203.73L381.53 204.36L380.26 204.94L378.98 205.46L377.68 205.94L376.36 206.37L375.02 206.75L373.68 207.07L372.32 207.34L370.96 207.57L369.58 207.74L368.2 207.85L366.82 207.92L365.43 207.93L364.04 207.88L362.65 207.79L361.27 207.63L359.88 207.43L358.5 207.17L357.13 206.85L355.77 206.48L354.41 206.05L353.07 205.56L351.74 205.02L350.43 204.42L349.13 203.76L347.85 203.04L346.58 202.27L345.36 201.44L344.17 200.58L343.03 199.67L341.94 198.72L340.89 197.74L339.89 196.72L338.94 195.67L338.71 195.39L338.92 195.13L339.87 194.03L340.85 192.97L341.88 191.96L342.93 191L344.02 190.08L345.14 189.21L346.28 188.39L347.46 187.62L348.66 186.89L349.88 186.22L351.12 185.59L352.39 185.01L353.68 184.49L354.98 184.01L356.3 183.58L357.63 183.2L358.98 182.88L360.33 182.61L361.7 182.38L363.07 182.21L364.45 182.1L365.84 182.03L367.22 182.02L368.61 182.07L370 182.16Z" id="jJK1hGx9g"></path><linearGradient id="gradientc3lHIcYhHh" gradientUnits="userSpaceOnUse" x1="363.35" y1="201.89" x2="375.06" y2="158.5"><stop style="stop-color: #f4efea;stop-opacity: 1" offset="0%"></stop><stop style="stop-color: #010000;stop-opacity: 1" offset="100%"></stop></linearGradient><path d="M347.38 197.22L348.78 197.36L350.17 197.55L351.54 197.8L352.9 198.1L354.25 198.45L355.58 198.85L356.89 199.3L358.19 199.8L359.46 200.34L360.71 200.94L361.93 201.58L363.13 202.27L364.31 203.01L365.45 203.78L366.57 204.61L367.65 205.47L368.7 206.38L369.72 207.33L370.7 208.33L371.64 209.36L372.55 210.43L373.42 211.54L374.24 212.69L375.02 213.88L375.76 215.1L376.45 216.36L377.09 217.66L377.68 218.99L378.23 220.35L378.72 221.74L379.15 223.16L379.52 224.58L379.84 226L380.09 227.42L380.28 228.85L380.42 230.27L380.49 231.69L380.5 232.05L380.17 232.12L378.74 232.38L377.31 232.57L375.88 232.71L374.45 232.8L373.03 232.82L371.61 232.79L370.2 232.71L368.81 232.57L367.42 232.38L366.04 232.13L364.68 231.83L363.33 231.48L362 231.08L360.69 230.63L359.4 230.13L358.12 229.58L356.88 228.99L355.65 228.35L354.45 227.66L353.28 226.92L352.13 226.14L351.02 225.32L349.93 224.45L348.88 223.54L347.86 222.59L346.88 221.6L345.94 220.57L345.03 219.5L344.17 218.39L343.34 217.24L342.56 216.05L341.83 214.83L341.14 213.57L340.49 212.27L339.9 210.94L339.36 209.58L338.87 208.18L338.43 206.77L338.06 205.35L337.75 203.93L337.5 202.5L337.3 201.08L337.17 199.66L337.09 198.24L337.09 197.88L337.41 197.81L338.84 197.55L340.28 197.35L341.71 197.21L343.13 197.13L344.55 197.11L345.97 197.14L347.38 197.22Z" id="a6d9UwgPGp"></path><linearGradient id="gradientf1oIdrkTNG" gradientUnits="userSpaceOnUse" x1="352.12" y1="218.45" x2="388.56" y2="192.15"><stop style="stop-color: #f4efea;stop-opacity: 1" offset="0%"></stop><stop style="stop-color: #010000;stop-opacity: 1" offset="100%"></stop></linearGradient><path d="M342.52 196L343.6 196.97L344.63 197.97L345.62 199L346.56 200.07L347.45 201.17L348.3 202.29L349.1 203.45L349.85 204.63L350.55 205.84L351.21 207.07L351.81 208.33L352.37 209.6L352.87 210.89L353.33 212.2L353.74 213.52L354.09 214.86L354.39 216.21L354.65 217.57L354.85 218.94L354.99 220.32L355.09 221.7L355.13 223.09L355.12 224.48L355.05 225.87L354.93 227.26L354.75 228.65L354.52 230.03L354.24 231.41L353.89 232.78L353.49 234.15L353.04 235.5L352.52 236.84L351.95 238.17L351.32 239.48L350.64 240.78L349.89 242.06L349.09 243.3L348.25 244.51L347.37 245.66L346.45 246.78L345.49 247.85L344.49 248.87L343.46 249.85L343.19 250.08L342.93 249.88L341.8 248.96L340.72 247.99L339.69 246.99L338.71 245.96L337.77 244.89L336.87 243.79L336.03 242.67L335.23 241.51L334.47 240.33L333.77 239.12L333.12 237.89L332.51 236.63L331.95 235.36L331.45 234.07L330.99 232.76L330.59 231.44L330.23 230.1L329.93 228.75L329.68 227.39L329.48 226.02L329.33 224.64L329.23 223.26L329.19 221.87L329.21 220.48L329.27 219.09L329.39 217.7L329.57 216.31L329.8 214.93L330.09 213.55L330.43 212.18L330.83 210.81L331.28 209.46L331.8 208.12L332.37 206.79L333 205.48L333.68 204.18L334.43 202.9L335.23 201.66L336.07 200.45L336.95 199.3L337.87 198.18L338.83 197.11L339.83 196.09L340.86 195.11L341.13 194.88L341.4 195.08L342.52 196Z" id="a2omkOSppI"></path><linearGradient id="gradienta5wXcJyJr0" gradientUnits="userSpaceOnUse" x1="335.18" y1="219.66" x2="378.82" y2="230.4"><stop style="stop-color: #f4efea;stop-opacity: 1" offset="0%"></stop><stop style="stop-color: #010000;stop-opacity: 1" offset="100%"></stop></linearGradient><path d="M338.85 199.71L338.9 200.04L339.06 201.48L339.16 202.93L339.21 204.36L339.19 205.79L339.12 207.21L339 208.62L338.82 210.02L338.59 211.41L338.3 212.78L337.96 214.13L337.58 215.47L337.14 216.79L336.65 218.1L336.11 219.38L335.53 220.63L334.9 221.86L334.22 223.07L333.5 224.25L332.73 225.4L331.92 226.52L331.06 227.61L330.17 228.67L329.23 229.7L328.25 230.68L327.24 231.63L326.18 232.55L325.09 233.42L323.96 234.25L322.79 235.04L321.59 235.79L320.35 236.49L319.08 237.14L317.78 237.74L316.44 238.3L315.08 238.8L313.68 239.25L312.26 239.65L310.82 239.99L309.37 240.27L307.93 240.48L306.5 240.64L305.07 240.74L303.64 240.77L302.22 240.76L301.86 240.74L301.81 240.41L301.65 238.96L301.54 237.52L301.5 236.08L301.51 234.65L301.58 233.23L301.71 231.82L301.89 230.42L302.12 229.04L302.4 227.67L302.74 226.31L303.13 224.97L303.57 223.65L304.06 222.35L304.59 221.07L305.18 219.81L305.81 218.58L306.49 217.37L307.21 216.19L307.98 215.04L308.79 213.92L309.64 212.83L310.54 211.77L311.48 210.75L312.45 209.76L313.47 208.81L314.53 207.9L315.62 207.02L316.75 206.19L317.92 205.4L319.12 204.66L320.35 203.96L321.62 203.31L322.93 202.7L324.26 202.15L325.63 201.64L327.02 201.19L328.45 200.79L329.89 200.46L331.33 200.18L332.77 199.96L334.21 199.81L335.64 199.71L337.07 199.67L338.49 199.69L338.85 199.71Z" id="d49rWo1Xad"></path><linearGradient id="gradientbXuoLZIAx" gradientUnits="userSpaceOnUse" x1="317.32" y1="213.33" x2="341.12" y2="251.45"><stop style="stop-color: #f4efea;stop-opacity: 1" offset="0%"></stop><stop style="stop-color: #010000;stop-opacity: 1" offset="100%"></stop></linearGradient><path d="M317.34 185.84L318.73 185.99L320.11 186.2L321.49 186.46L322.86 186.78L324.23 187.15L325.58 187.58L326.93 188.06L328.26 188.61L329.57 189.21L330.87 189.86L332.15 190.58L333.41 191.35L334.64 192.18L335.83 193.04L336.96 193.95L338.06 194.9L339.1 195.88L340.11 196.9L341.06 197.95L341.29 198.23L341.08 198.49L340.13 199.59L339.15 200.65L338.13 201.66L337.07 202.62L335.98 203.54L334.87 204.41L333.72 205.23L332.55 206L331.35 206.73L330.12 207.4L328.88 208.03L327.61 208.61L326.33 209.14L325.02 209.62L323.71 210.05L322.37 210.42L321.03 210.75L319.67 211.02L318.31 211.24L316.93 211.41L315.55 211.53L314.17 211.6L312.78 211.61L311.39 211.56L310 211.47L308.61 211.31L307.23 211.11L305.85 210.85L304.48 210.53L303.12 210.16L301.76 209.73L300.42 209.24L299.09 208.7L297.77 208.1L296.47 207.44L295.19 206.73L293.93 205.96L292.7 205.13L291.52 204.26L290.38 203.36L289.29 202.41L288.24 201.43L287.24 200.41L286.28 199.36L286.05 199.08L286.26 198.82L287.21 197.72L288.2 196.66L289.22 195.65L290.27 194.69L291.36 193.77L292.48 192.9L293.63 192.08L294.8 191.31L296 190.58L297.22 189.9L298.47 189.28L299.73 188.7L301.02 188.17L302.32 187.69L303.64 187.26L304.97 186.89L306.32 186.56L307.67 186.29L309.04 186.06L310.41 185.89L311.79 185.78L313.18 185.71L314.56 185.7L315.95 185.75L317.34 185.84Z" id="a1d13ja6rl"></path><linearGradient id="gradientc70oJVuue" gradientUnits="userSpaceOnUse" x1="316.65" y1="191.74" x2="304.95" y2="235.13"><stop style="stop-color: #f4efea;stop-opacity: 1" offset="0%"></stop><stop style="stop-color: #010000;stop-opacity: 1" offset="100%"></stop></linearGradient><path d="M308.62 164.4L310.01 164.54L311.39 164.74L312.76 165L314.12 165.3L315.46 165.66L316.79 166.07L318.1 166.52L319.39 167.03L320.66 167.58L321.9 168.19L323.13 168.83L324.32 169.53L325.49 170.27L326.63 171.06L327.75 171.89L328.83 172.76L329.87 173.68L330.89 174.64L331.86 175.64L332.8 176.68L333.71 177.76L334.57 178.89L335.39 180.05L336.16 181.25L336.89 182.48L337.58 183.75L338.21 185.06L338.8 186.41L339.34 187.79L339.82 189.19L340.24 190.59L340.6 192L340.9 193.42L341.13 194.83L341.32 196.25L341.44 197.67L341.46 198.03L341.13 198.11L339.71 198.41L338.28 198.66L336.86 198.84L335.44 198.97L334.02 199.05L332.6 199.06L331.19 199.02L329.79 198.93L328.39 198.78L327.01 198.58L325.64 198.33L324.28 198.02L322.94 197.67L321.61 197.26L320.3 196.8L319.01 196.3L317.75 195.74L316.5 195.14L315.28 194.49L314.08 193.8L312.91 193.06L311.77 192.27L310.66 191.44L309.58 190.56L308.53 189.65L307.52 188.69L306.54 187.69L305.6 186.64L304.7 185.56L303.84 184.44L303.02 183.28L302.24 182.08L301.51 180.84L300.83 179.57L300.19 178.26L299.6 176.92L299.07 175.54L298.59 174.14L298.17 172.73L297.81 171.32L297.51 169.91L297.27 168.49L297.09 167.08L296.96 165.66L296.95 165.3L297.27 165.22L298.69 164.91L300.12 164.67L301.54 164.48L302.97 164.35L304.39 164.28L305.8 164.26L307.21 164.3L308.62 164.4Z" id="c1nvSASj8B"></path><linearGradient id="gradienta20NcyuX7" gradientUnits="userSpaceOnUse" x1="325.75" y1="177.96" x2="290.2" y2="205.44"><stop style="stop-color: #f4efea;stop-opacity: 1" offset="0%"></stop><stop style="stop-color: #010000;stop-opacity: 1" offset="100%"></stop></linearGradient><path d="M337.67 143.44L338.74 144.41L339.78 145.41L340.76 146.44L341.7 147.51L342.6 148.6L343.44 149.73L344.24 150.89L345 152.07L345.7 153.28L346.35 154.51L346.96 155.76L347.52 157.03L348.02 158.33L348.48 159.64L348.89 160.96L349.24 162.3L349.55 163.65L349.8 165.01L350 166.38L350.15 167.75L350.24 169.14L350.28 170.52L350.27 171.91L350.21 173.3L350.09 174.7L349.91 176.08L349.68 177.47L349.39 178.85L349.05 180.22L348.65 181.58L348.2 182.93L347.68 184.28L347.11 185.6L346.49 186.92L345.8 188.21L345.05 189.49L344.26 190.74L343.42 191.94L342.53 193.1L341.61 194.22L340.65 195.28L339.66 196.31L338.63 197.28L338.36 197.52L338.09 197.32L336.97 196.39L335.89 195.43L334.86 194.43L333.87 193.4L332.93 192.33L332.03 191.23L331.19 190.11L330.39 188.95L329.64 187.77L328.93 186.56L328.28 185.33L327.67 184.08L327.11 182.8L326.61 181.51L326.15 180.2L325.74 178.88L325.39 177.54L325.08 176.19L324.83 174.83L324.63 173.46L324.48 172.08L324.39 170.7L324.35 169.31L324.36 167.92L324.43 166.53L324.55 165.14L324.72 163.76L324.95 162.37L325.24 160.99L325.58 159.62L325.98 158.26L326.43 156.9L326.95 155.56L327.52 154.23L328.15 152.92L328.83 151.62L329.58 150.35L330.38 149.1L331.22 147.9L332.1 146.74L333.02 145.62L333.98 144.55L334.97 143.53L336 142.55L336.28 142.32L336.54 142.52L337.67 143.44Z" id="g48avuOkjb"></path><linearGradient id="gradienta1O6s71sXM" gradientUnits="userSpaceOnUse" x1="344.3" y1="172.74" x2="300.65" y2="162.01"><stop style="stop-color: #f4efea;stop-opacity: 1" offset="0%"></stop><stop style="stop-color: #010000;stop-opacity: 1" offset="100%"></stop></linearGradient></defs><g><g><g><g><use xlink:href="#c2laUvptjT" opacity="1" fill-opacity="0" stroke="#000000" stroke-width="1" stroke-opacity="1"></use></g></g><g><use xlink:href="#bcsesNftL" opacity="1" fill="url(#gradientb8q4eB2Ps0)"></use><g><filter id="shadow4776737" x="165.86" y="126.54" width="354.89" height="347.92" filterUnits="userSpaceOnUse" primitiveUnits="userSpaceOnUse"><feFlood></feFlood><feComposite in2="SourceAlpha" operator="out"></feComposite><feGaussianBlur stdDeviation="1"></feGaussianBlur><feOffset dx="1" dy="1" result="afterOffset"></feOffset><feFlood flood-color="#ffffff" flood-opacity="0.8"></feFlood><feComposite in2="afterOffset" operator="in"></feComposite><feMorphology operator="dilate" radius="1"></feMorphology><feComposite in2="SourceAlpha" operator="in"></feComposite></filter><path d="M184.29 356.9C153.73 271.75 199.94 177.13 287.43 145.73C374.92 114.32 470.76 157.96 501.33 243.1C531.89 328.25 485.67 422.87 398.18 454.27C310.69 485.68 214.85 442.04 184.29 356.9Z" id="amKjWMuwK" fill="white" fill-opacity="1" filter="url(#shadow4776737)"></path></g></g><g><use xlink:href="#c3DAGk96SC" opacity="1" fill="url(#gradienth3cKALnQT)"></use><g><filter id="shadow14366020" x="177.06" y="258.3" width="186.88" height="204.4" filterUnits="userSpaceOnUse" primitiveUnits="userSpaceOnUse"><feFlood></feFlood><feComposite in2="SourceAlpha" operator="out"></feComposite><feGaussianBlur stdDeviation="1"></feGaussianBlur><feOffset dx="1" dy="1" result="afterOffset"></feOffset><feFlood flood-color="#ffffff" flood-opacity="0.8"></feFlood><feComposite in2="afterOffset" operator="in"></feComposite><feMorphology operator="dilate" radius="1"></feMorphology><feComposite in2="SourceAlpha" operator="in"></feComposite></filter><path d="M202.46 267.59L208.87 268.11L215.23 268.89L221.51 269.91L227.73 271.17L233.87 272.67L239.92 274.4L245.89 276.36L251.75 278.55L257.52 280.95L263.18 283.56L268.72 286.39L274.15 289.42L279.45 292.66L284.62 296.09L289.65 299.71L294.54 303.52L299.28 307.52L303.87 311.69L308.29 316.04L312.55 320.56L316.63 325.25L320.54 330.1L324.26 335.1L327.79 340.26L331.13 345.56L334.27 351.01L337.19 356.6L339.9 362.33L342.4 368.18L344.66 374.16L346.7 380.26L348.5 386.48L350.05 392.82L351.36 399.26L352.41 405.81L353.19 412.39L353.7 418.94L353.94 425.46L353.92 431.93L353.63 438.36L353.09 444.73L352.3 451.05L352.03 452.64L350.53 452.7L344.01 452.69L337.54 452.41L331.13 451.89L324.77 451.11L318.49 450.09L312.27 448.83L306.13 447.33L300.08 445.6L294.11 443.64L288.25 441.45L282.48 439.05L276.82 436.44L271.28 433.61L265.85 430.58L260.55 427.34L255.38 423.91L250.35 420.29L245.46 416.48L240.72 412.48L236.13 408.31L231.71 403.96L227.45 399.44L223.37 394.75L219.46 389.9L215.74 384.9L212.21 379.74L208.87 374.44L205.73 368.99L202.81 363.4L200.1 357.67L197.6 351.82L195.34 345.84L193.3 339.74L191.5 333.52L189.95 327.18L188.64 320.74L187.59 314.19L186.81 307.61L186.3 301.06L186.06 294.54L186.08 288.07L186.37 281.64L186.91 275.27L187.7 268.95L187.97 267.36L189.47 267.3L195.99 267.31L202.46 267.59Z" id="chhMDQSuo" fill="white" fill-opacity="1" filter="url(#shadow14366020)"></path></g></g><g><use xlink:href="#dBlN8c4gc" opacity="1" fill="url(#gradientaeHvJ70Zm)"></use><g><filter id="shadow11673322" x="275.78" y="196.99" width="135.19" height="266.3" filterUnits="userSpaceOnUse" primitiveUnits="userSpaceOnUse"><feFlood></feFlood><feComposite in2="SourceAlpha" operator="out"></feComposite><feGaussianBlur stdDeviation="1"></feGaussianBlur><feOffset dx="1" dy="1" result="afterOffset"></feOffset><feFlood flood-color="#ffffff" flood-opacity="0.8"></feFlood><feComposite in2="afterOffset" operator="in"></feComposite><feMorphology operator="dilate" radius="1"></feMorphology><feComposite in2="SourceAlpha" operator="in"></feComposite></filter><path d="M344.44 211.04L349.27 215.35L353.9 219.83L358.32 224.46L362.53 229.24L366.53 234.15L370.33 239.21L373.91 244.39L377.28 249.68L380.43 255.09L383.37 260.61L386.08 266.22L388.57 271.92L390.85 277.71L392.89 283.57L394.71 289.5L396.3 295.49L397.67 301.54L398.8 307.64L399.69 313.77L400.36 319.94L400.78 326.14L400.97 332.35L400.91 338.58L400.62 344.81L400.08 351.03L399.29 357.25L398.26 363.45L396.98 369.63L395.44 375.78L393.66 381.88L391.62 387.94L389.32 393.95L386.76 399.9L383.95 405.79L380.87 411.6L377.53 417.32L373.96 422.91L370.2 428.3L366.25 433.49L362.13 438.48L357.83 443.27L353.37 447.85L348.75 452.23L347.54 453.29L346.34 452.38L341.31 448.24L336.48 443.93L331.85 439.45L327.43 434.82L323.22 430.04L319.21 425.12L315.42 420.07L311.84 414.89L308.47 409.6L305.32 404.19L302.38 398.67L299.67 393.06L297.17 387.36L294.9 381.57L292.85 375.71L291.03 369.78L289.44 363.79L288.08 357.74L286.95 351.64L286.05 345.51L285.39 339.34L284.97 333.14L284.78 326.93L284.83 320.7L285.13 314.47L285.67 308.25L286.46 302.03L287.49 295.83L288.77 289.65L290.3 283.5L292.09 277.4L294.13 271.33L296.43 265.32L298.98 259.37L301.8 253.49L304.87 247.68L308.21 241.96L311.78 236.37L315.55 230.98L319.49 225.79L323.62 220.8L327.92 216.01L332.38 211.43L337 207.05L338.21 205.99L339.41 206.89L344.44 211.04Z" id="bbId7Huby" fill="white" fill-opacity="1" filter="url(#shadow11673322)"></path></g></g><g><g><filter id="shadow8141353" x="332.81" y="243.75" width="174.42" height="218.94" filterUnits="userSpaceOnUse" primitiveUnits="userSpaceOnUse"><feFlood></feFlood><feComposite in2="SourceAlpha" operator="in"></feComposite><feGaussianBlur stdDeviation="1"></feGaussianBlur><feOffset dx="1" dy="1" result="afterOffset"></feOffset><feFlood flood-color="#000000" flood-opacity="0.5"></feFlood><feComposite in2="afterOffset" operator="in"></feComposite><feMorphology operator="dilate" radius="1"></feMorphology><feComposite in2="SourceAlpha" operator="out"></feComposite></filter><path d="M494.2 260.57L495.32 266.95L496.18 273.32L496.78 279.7L497.13 286.06L497.23 292.4L497.08 298.72L496.69 305L496.05 311.25L495.17 317.45L494.06 323.59L492.72 329.68L491.15 335.7L489.35 341.65L487.32 347.52L485.08 353.31L482.62 359L479.94 364.59L477.05 370.08L473.96 375.45L470.66 380.7L467.15 385.83L463.45 390.82L459.55 395.68L455.46 400.39L451.18 404.94L446.72 409.34L442.06 413.57L437.23 417.62L432.22 421.5L427.04 425.19L421.68 428.68L416.15 431.98L410.46 435.07L404.61 437.94L398.6 440.6L392.43 443.03L386.17 445.2L379.87 447.1L373.56 448.73L367.23 450.1L360.89 451.19L354.55 452.03L348.21 452.61L346.6 452.69L346.22 451.24L344.84 444.87L343.72 438.49L342.86 432.11L342.25 425.74L341.91 419.38L341.81 413.03L341.96 406.72L342.35 400.43L342.99 394.19L343.86 387.99L344.97 381.84L346.32 375.75L347.89 369.73L349.69 363.78L351.71 357.91L353.96 352.13L356.42 346.44L359.1 340.85L361.98 335.36L365.08 329.99L368.38 324.73L371.88 319.61L375.58 314.61L379.48 309.76L383.57 305.05L387.85 300.49L392.32 296.1L396.97 291.87L401.81 287.81L406.82 283.94L412 280.25L417.36 276.75L422.88 273.46L428.57 270.37L434.43 267.49L440.44 264.84L446.61 262.41L452.87 260.23L459.16 258.33L465.48 256.7L471.81 255.34L478.15 254.24L484.49 253.41L490.82 252.83L492.44 252.75L492.81 254.2L494.2 260.57Z" id="b7kOGsTd6" fill="white" fill-opacity="1" filter="url(#shadow8141353)"></path></g><use xlink:href="#efgWKX1jR" opacity="1" fill="url(#gradientc3PHHpw4Pj)"></use><g><use xlink:href="#efgWKX1jR" opacity="1" fill-opacity="0" stroke="#5502e6" stroke-width="1" stroke-opacity="1"></use></g><g><filter id="shadow13111020" x="332.81" y="243.75" width="174.42" height="218.94" filterUnits="userSpaceOnUse" primitiveUnits="userSpaceOnUse"><feFlood></feFlood><feComposite in2="SourceAlpha" operator="out"></feComposite><feGaussianBlur stdDeviation="1"></feGaussianBlur><feOffset dx="1" dy="1" result="afterOffset"></feOffset><feFlood flood-color="#ffffff" flood-opacity="0.8"></feFlood><feComposite in2="afterOffset" operator="in"></feComposite><feMorphology operator="dilate" radius="1"></feMorphology><feComposite in2="SourceAlpha" operator="in"></feComposite></filter><path d="M494.2 260.57L495.32 266.95L496.18 273.32L496.78 279.7L497.13 286.06L497.23 292.4L497.08 298.72L496.69 305L496.05 311.25L495.17 317.45L494.06 323.59L492.72 329.68L491.15 335.7L489.35 341.65L487.32 347.52L485.08 353.31L482.62 359L479.94 364.59L477.05 370.08L473.96 375.45L470.66 380.7L467.15 385.83L463.45 390.82L459.55 395.68L455.46 400.39L451.18 404.94L446.72 409.34L442.06 413.57L437.23 417.62L432.22 421.5L427.04 425.19L421.68 428.68L416.15 431.98L410.46 435.07L404.61 437.94L398.6 440.6L392.43 443.03L386.17 445.2L379.87 447.1L373.56 448.73L367.23 450.1L360.89 451.19L354.55 452.03L348.21 452.61L346.6 452.69L346.22 451.24L344.84 444.87L343.72 438.49L342.86 432.11L342.25 425.74L341.91 419.38L341.81 413.03L341.96 406.72L342.35 400.43L342.99 394.19L343.86 387.99L344.97 381.84L346.32 375.75L347.89 369.73L349.69 363.78L351.71 357.91L353.96 352.13L356.42 346.44L359.1 340.85L361.98 335.36L365.08 329.99L368.38 324.73L371.88 319.61L375.58 314.61L379.48 309.76L383.57 305.05L387.85 300.49L392.32 296.1L396.97 291.87L401.81 287.81L406.82 283.94L412 280.25L417.36 276.75L422.88 273.46L428.57 270.37L434.43 267.49L440.44 264.84L446.61 262.41L452.87 260.23L459.16 258.33L465.48 256.7L471.81 255.34L478.15 254.24L484.49 253.41L490.82 252.83L492.44 252.75L492.81 254.2L494.2 260.57Z" id="kPU81kzzw" fill="white" fill-opacity="1" filter="url(#shadow13111020)"></path></g></g><g><use xlink:href="#b4CqX9ewpN" opacity="1" fill="url(#gradientbbwOvccaH)"></use></g><g><use xlink:href="#jJK1hGx9g" opacity="1" fill="url(#gradientc3lHIcYhHh)"></use></g><g><use xlink:href="#a6d9UwgPGp" opacity="1" fill="url(#gradientf1oIdrkTNG)"></use></g><g><use xlink:href="#a2omkOSppI" opacity="1" fill="url(#gradienta5wXcJyJr0)"></use></g><g><use xlink:href="#d49rWo1Xad" opacity="1" fill="url(#gradientbXuoLZIAx)"></use></g><g><use xlink:href="#a1d13ja6rl" opacity="1" fill="url(#gradientc70oJVuue)"></use></g><g><use xlink:href="#c1nvSASj8B" opacity="1" fill="url(#gradienta20NcyuX7)"></use></g><g><use xlink:href="#g48avuOkjb" opacity="1" fill="url(#gradienta1O6s71sXM)"></use></g></g></g></svg>