<?xml version="1.0" encoding="UTF-8" standalone="no"?>
<!DOCTYPE svg PUBLIC "-//W3C//DTD SVG 1.1//EN" "http://www.w3.org/Graphics/SVG/1.1/DTD/svg11.dtd">
<svg version="1.1" xmlns="http://www.w3.org/2000/svg" xmlns:xlink="http://www.w3.org/1999/xlink" preserveAspectRatio="xMidYMid meet" viewBox="0 0 640 640" width="1920" height="870"><defs><path d="M-370.53 373.86L-370.53 1.56L896.47 1.56L896.47 373.86L-370.53 373.86Z" id="d2VgwxQBas"></path><path d="M-258.21 89.14L-256.95 89.29L-255.7 89.48L-254.47 89.73L-253.26 90.04L-252.06 90.39L-250.89 90.8L-249.74 91.25L-248.61 91.75L-247.51 92.3L-246.43 92.89L-245.38 93.53L-244.36 94.21L-243.36 94.93L-242.4 95.69L-241.46 96.49L-240.56 97.33L-239.69 98.21L-238.86 99.12L-238.05 100.07L-237.29 101.05L-236.77 101.78L-236.14 101.57L-234.78 101.15L-233.38 100.77L-231.96 100.42L-230.52 100.11L-229.05 99.85L-227.56 99.62L-226.05 99.42L-224.52 99.28L-222.97 99.17L-221.4 99.1L-219.82 99.08L-218.24 99.1L-216.67 99.17L-215.12 99.28L-213.59 99.42L-212.08 99.62L-210.59 99.85L-209.12 100.11L-207.68 100.42L-206.26 100.77L-204.87 101.15L-203.5 101.57L-202.16 102.02L-200.86 102.5L-199.58 103.02L-198.34 103.58L-197.13 104.16L-195.95 104.77L-194.81 105.42L-193.71 106.09L-192.65 106.79L-191.63 107.52L-190.64 108.27L-189.7 109.05L-188.81 109.86L-187.95 110.68L-187.15 111.54L-186.39 112.41L-185.68 113.3L-185.02 114.22L-184.41 115.15L-183.85 116.11L-183.35 117.08L-182.9 118.07L-182.5 119.07L-182.17 120.09L-181.89 121.12L-181.67 122.17L-181.51 123.23L-181.42 124.31L-181.39 125.39L-181.42 126.47L-181.51 127.55L-181.6 128.15L-179.45 128.35L-175.2 128.8L-171.06 129.28L-167.03 129.78L-163.12 130.32L-159.33 130.87L-155.66 131.45L-152.12 132.06L-148.72 132.69L-145.45 133.34L-142.32 134.02L-139.33 134.71L-136.49 135.43L-133.81 136.17L-131.29 136.92L-128.92 137.7L-126.72 138.49L-124.69 139.3L-122.84 140.12L-121.16 140.96L-119.66 141.82L-118.35 142.69L-117.23 143.57L-116.31 144.46L-115.58 145.37L-115.05 146.29L-114.74 147.21L-114.63 148.15L-114.74 149.09L-115.05 150.02L-115.58 150.94L-116.31 151.84L-117.23 152.74L-118.35 153.62L-119.66 154.49L-121.16 155.34L-122.84 156.18L-124.69 157.01L-126.72 157.82L-128.92 158.61L-131.29 159.38L-133.81 160.14L-136.49 160.88L-139.33 161.59L-142.32 162.29L-145.45 162.96L-148.72 163.62L-152.12 164.24L-155.66 164.85L-159.33 165.43L-163.12 165.99L-167.03 166.52L-171.06 167.03L-175.2 167.5L-179.45 167.95L-183.8 168.37L-188.25 168.76L-192.8 169.13L-197.43 169.46L-202.16 169.75L-206.96 170.02L-211.85 170.25L-216.81 170.45L-221.84 170.62L-226.93 170.75L-232.09 170.84L-237.31 170.9L-242.58 170.91L-247.85 170.9L-253.07 170.84L-258.22 170.75L-263.32 170.62L-268.35 170.45L-273.31 170.25L-278.2 170.02L-283 169.75L-287.73 169.46L-292.36 169.13L-296.91 168.76L-301.36 168.37L-305.71 167.95L-309.96 167.5L-314.1 167.03L-318.12 166.52L-322.04 165.99L-325.83 165.43L-329.49 164.85L-333.03 164.24L-336.44 163.62L-339.71 162.96L-342.84 162.29L-345.83 161.59L-348.66 160.88L-351.35 160.14L-353.87 159.38L-356.24 158.61L-358.44 157.82L-360.47 157.01L-362.32 156.18L-364 155.34L-365.5 154.49L-366.81 153.62L-367.93 152.74L-368.85 151.84L-369.58 150.94L-370.1 150.02L-370.42 149.09L-370.53 148.15L-370.42 147.21L-370.1 146.29L-369.58 145.37L-368.85 144.46L-367.93 143.57L-366.81 142.69L-365.5 141.82L-364 140.96L-362.32 140.12L-360.47 139.3L-358.44 138.49L-356.24 137.7L-353.87 136.92L-351.35 136.17L-348.66 135.43L-345.83 134.71L-342.84 134.02L-342.04 133.85L-341.92 133L-341.7 131.92L-341.43 130.85L-341.09 129.8L-340.7 128.76L-340.25 127.74L-339.74 126.73L-339.18 125.75L-338.57 124.78L-337.91 123.83L-337.2 122.91L-336.44 122.01L-335.64 121.13L-334.79 120.27L-333.89 119.44L-332.95 118.63L-331.97 117.85L-330.94 117.1L-329.88 116.38L-328.78 115.68L-327.64 115.02L-326.46 114.38L-325.25 113.78L-324.01 113.21L-322.74 112.67L-321.43 112.17L-320.09 111.7L-318.73 111.27L-317.33 110.88L-315.91 110.52L-314.47 110.2L-313 109.92L-311.51 109.68L-310 109.49L-308.47 109.33L-306.92 109.22L-305.35 109.15L-303.77 109.13L-302.19 109.15L-300.62 109.22L-299.07 109.33L-297.54 109.49L-296.03 109.68L-294.54 109.92L-293.07 110.2L-291.63 110.52L-290.21 110.88L-289.3 111.13L-288.94 109.97L-288.51 108.77L-288.03 107.58L-287.51 106.43L-286.95 105.29L-286.34 104.19L-285.69 103.11L-285 102.07L-284.28 101.05L-283.51 100.07L-282.71 99.12L-281.88 98.21L-281.01 97.33L-280.11 96.49L-279.17 95.69L-278.21 94.93L-277.21 94.21L-276.19 93.53L-275.14 92.89L-274.06 92.3L-272.96 91.75L-271.83 91.25L-270.68 90.8L-269.51 90.39L-268.31 90.04L-267.1 89.73L-265.87 89.48L-264.62 89.29L-263.36 89.14L-262.08 89.06L-260.78 89.03L-259.49 89.06L-258.21 89.14Z" id="b1FBskOHvB"></path><path d="M-38.11 36.17L-36.83 36.42L-35.57 36.71L-34.33 37.06L-33.12 37.45L-31.92 37.89L-30.75 38.38L-29.61 38.92L-28.49 39.49L-27.4 40.11L-26.33 40.78L-25.3 41.48L-24.3 42.22L-23.33 43L-22.39 43.82L-21.49 44.68L-20.62 45.57L-19.79 46.49L-19 47.45L-18.46 48.15L-17.81 47.94L-16.39 47.54L-14.94 47.17L-13.47 46.83L-11.97 46.53L-10.45 46.27L-8.9 46.04L-7.33 45.86L-5.74 45.71L-4.14 45.61L-2.51 45.54L-0.87 45.52L0.78 45.54L2.4 45.61L4.01 45.71L5.6 45.86L7.17 46.04L8.72 46.27L10.24 46.53L11.74 46.83L13.21 47.17L14.66 47.54L16.07 47.94L17.46 48.38L18.82 48.86L20.14 49.36L21.43 49.9L22.69 50.47L23.91 51.07L25.09 51.69L26.23 52.35L27.34 53.03L28.4 53.74L29.42 54.48L30.39 55.23L31.33 56.02L32.21 56.83L33.05 57.65L33.83 58.5L34.57 59.38L35.26 60.27L35.89 61.18L36.47 62.11L36.99 63.05L37.46 64.02L37.87 64.99L38.22 65.99L38.5 66.99L38.73 68.02L38.89 69.05L38.99 70.09L39.03 71.15L38.99 72.2L38.89 73.25L38.8 73.83L41.04 74.04L45.45 74.47L49.74 74.94L53.92 75.43L57.98 75.95L61.92 76.49L65.73 77.06L69.4 77.65L72.94 78.26L76.33 78.89L79.58 79.55L82.68 80.23L85.62 80.93L88.41 81.65L91.03 82.38L93.48 83.13L95.77 83.91L97.87 84.69L99.8 85.5L101.54 86.32L103.09 87.15L104.45 88L105.61 88.85L106.58 89.73L107.33 90.61L107.87 91.5L108.2 92.41L108.31 93.32L108.2 94.23L107.87 95.14L107.33 96.03L106.58 96.91L105.61 97.79L104.45 98.65L103.09 99.49L101.54 100.33L99.8 101.14L97.87 101.95L95.77 102.73L93.48 103.51L91.03 104.26L88.41 105L85.62 105.71L82.68 106.41L79.58 107.09L76.33 107.75L72.94 108.38L69.4 108.99L65.73 109.59L61.92 110.15L57.98 110.69L53.92 111.21L49.74 111.7L45.45 112.17L41.04 112.61L36.52 113.02L31.9 113.4L27.18 113.75L22.37 114.07L17.47 114.36L12.48 114.62L7.41 114.85L2.26 115.04L-2.96 115.2L-8.25 115.33L-13.6 115.42L-19.02 115.47L-24.49 115.49L-29.96 115.47L-35.37 115.42L-40.73 115.33L-46.02 115.2L-51.24 115.04L-56.38 114.85L-61.46 114.62L-66.44 114.36L-71.35 114.07L-76.16 113.75L-80.88 113.4L-85.5 113.02L-90.01 112.61L-94.42 112.17L-98.72 111.7L-102.9 111.21L-106.96 110.69L-110.89 110.15L-114.7 109.59L-118.37 108.99L-121.91 108.38L-125.3 107.75L-128.55 107.09L-131.65 106.41L-134.6 105.71L-137.38 105L-140 104.26L-142.46 103.51L-144.74 102.73L-146.85 101.95L-148.77 101.14L-150.51 100.33L-152.07 99.49L-153.43 98.65L-154.59 97.79L-155.55 96.91L-156.3 96.03L-156.85 95.14L-157.18 94.23L-157.29 93.32L-157.18 92.41L-156.85 91.5L-156.3 90.61L-155.55 89.73L-154.59 88.85L-153.43 88L-152.07 87.15L-150.51 86.32L-148.77 85.5L-146.85 84.69L-144.74 83.91L-142.46 83.13L-140 82.38L-137.38 81.65L-134.6 80.93L-131.65 80.23L-128.55 79.55L-127.72 79.38L-127.6 78.56L-127.37 77.51L-127.08 76.47L-126.73 75.44L-126.33 74.43L-125.86 73.43L-125.34 72.46L-124.76 71.5L-124.12 70.55L-123.44 69.63L-122.7 68.73L-121.91 67.85L-121.08 67L-120.19 66.16L-119.26 65.35L-118.29 64.57L-117.27 63.81L-116.2 63.07L-115.1 62.37L-113.96 61.69L-112.77 61.04L-111.55 60.43L-110.3 59.84L-109.01 59.28L-107.68 58.76L-106.33 58.27L-104.94 57.82L-103.52 57.4L-102.08 57.01L-100.6 56.66L-99.11 56.35L-97.58 56.08L-96.04 55.85L-94.47 55.66L-92.88 55.51L-91.27 55.4L-89.64 55.33L-88 55.31L-86.36 55.33L-84.73 55.4L-83.12 55.51L-81.53 55.66L-79.97 55.85L-78.42 56.08L-76.9 56.35L-75.4 56.66L-73.92 57.01L-72.98 57.26L-72.61 56.13L-72.16 54.96L-71.66 53.8L-71.12 52.68L-70.54 51.57L-69.91 50.5L-69.24 49.45L-68.52 48.43L-67.77 47.45L-66.98 46.49L-66.15 45.57L-65.28 44.68L-64.38 43.82L-63.44 43L-62.47 42.22L-61.47 41.48L-60.43 40.78L-59.37 40.11L-58.28 39.49L-57.16 38.92L-56.02 38.38L-54.85 37.89L-53.65 37.45L-52.44 37.06L-51.2 36.71L-49.94 36.42L-48.66 36.17L-47.37 35.98L-46.05 35.84L-44.73 35.76L-43.38 35.73L-42.04 35.76L-40.71 35.84L-39.4 35.98L-39.4 35.98L-38.11 36.17Z" id="j5E96ksib"></path><path d="M-370.53 373.86L896.47 373.86L896.47 591.51L-370.53 591.51L-370.53 373.86Z" id="dPg4N1Ha4"></path><path d="M297.69 60.9L299.84 61.26L301.95 61.68L304.04 62.18L306.1 62.75L308.12 63.39L310.1 64.1L312.04 64.87L313.94 65.71L315.8 66.61L317.62 67.58L319.39 68.6L321.11 69.68L322.78 70.82L324.4 72.01L325.97 73.26L327.48 74.56L328.94 75.9L330.34 77.3L331.67 78.75L332.84 80.11L333.99 79.78L336.49 79.13L339.04 78.53L341.64 78L344.29 77.52L346.98 77.1L349.71 76.74L352.48 76.44L355.28 76.21L358.12 76.04L361 75.94L363.9 75.91L366.8 75.94L369.67 76.04L372.51 76.21L375.32 76.44L378.09 76.74L380.82 77.1L383.51 77.52L386.15 78L388.75 78.53L391.31 79.13L393.81 79.78L396.26 80.48L398.65 81.24L400.99 82.05L403.27 82.9L405.49 83.81L407.64 84.77L409.73 85.77L411.75 86.82L413.7 87.91L415.57 89.04L417.38 90.21L419.1 91.43L420.74 92.68L422.3 93.97L423.78 95.29L425.17 96.65L426.47 98.04L427.68 99.47L428.8 100.92L429.82 102.41L430.75 103.92L431.57 105.46L432.29 107.02L432.91 108.61L433.42 110.22L433.82 111.85L434.11 113.5L434.28 115.17L434.34 116.85L434.28 118.54L434.11 120.21L433.94 121.14L437.89 121.47L445.68 122.17L453.26 122.91L460.64 123.69L467.81 124.52L474.76 125.39L481.49 126.29L487.97 127.24L494.22 128.22L500.21 129.23L505.95 130.28L511.42 131.36L516.62 132.48L521.54 133.63L526.17 134.8L530.5 136.01L534.53 137.24L538.25 138.5L541.65 139.78L544.73 141.09L547.47 142.42L549.87 143.77L551.92 145.15L553.62 146.54L554.95 147.95L555.91 149.38L556.49 150.82L556.69 152.28L556.49 153.74L555.91 155.18L554.95 156.61L553.62 158.02L551.92 159.42L549.87 160.79L547.47 162.14L544.73 163.47L541.65 164.78L538.25 166.06L534.53 167.32L530.5 168.56L526.17 169.76L521.54 170.94L516.62 172.08L511.42 173.2L505.95 174.28L500.21 175.33L494.22 176.35L487.97 177.33L481.49 178.27L474.76 179.17L467.81 180.04L460.64 180.87L453.26 181.65L445.68 182.4L437.89 183.1L429.92 183.75L421.76 184.36L413.43 184.92L404.93 185.44L396.28 185.9L387.47 186.31L378.51 186.68L369.42 186.99L360.2 187.24L350.86 187.44L341.41 187.59L331.85 187.68L322.19 187.71L312.53 187.68L302.97 187.59L293.51 187.44L284.17 187.24L274.95 186.99L265.86 186.68L256.91 186.31L248.1 185.9L239.44 185.44L230.95 184.92L222.61 184.36L214.46 183.75L206.48 183.1L198.7 182.4L191.11 181.65L183.73 180.87L176.56 180.04L169.61 179.17L162.89 178.27L156.4 177.33L150.16 176.35L144.16 175.33L138.43 174.28L132.96 173.2L127.76 172.08L122.84 170.94L118.21 169.76L113.88 168.56L109.85 167.32L106.13 166.06L102.72 164.78L99.65 163.47L96.91 162.14L94.51 160.79L92.45 159.42L90.76 158.02L89.42 156.61L88.46 155.18L87.88 153.74L87.69 152.28L87.88 150.82L88.46 149.38L89.42 147.95L90.76 146.54L92.45 145.15L94.51 143.77L96.91 142.42L99.65 141.09L102.72 139.78L106.13 138.5L109.85 137.24L113.88 136.01L118.21 134.8L122.84 133.63L127.76 132.48L132.96 131.36L138.43 130.28L139.89 130.01L140.11 128.7L140.51 127.02L141.02 125.35L141.64 123.71L142.36 122.09L143.18 120.5L144.11 118.94L145.13 117.41L146.25 115.9L147.46 114.43L148.76 112.99L150.15 111.59L151.63 110.22L153.19 108.89L154.83 107.59L156.56 106.34L158.36 105.12L160.23 103.95L162.18 102.83L164.2 101.74L166.29 100.71L168.44 99.72L170.66 98.78L172.94 97.9L175.28 97.06L177.67 96.28L180.12 95.55L182.63 94.88L185.18 94.26L187.78 93.71L190.42 93.21L193.11 92.78L195.84 92.41L198.61 92.1L201.42 91.86L204.26 91.69L207.13 91.59L210.03 91.55L212.94 91.59L215.81 91.69L218.65 91.86L221.45 92.1L224.22 92.41L226.95 92.78L229.64 93.21L232.29 93.71L234.89 94.26L236.56 94.67L236.92 93.63L237.64 91.83L238.43 90.06L239.3 88.33L240.24 86.63L241.25 84.97L242.33 83.35L243.48 81.77L244.69 80.24L245.97 78.75L247.3 77.3L248.7 75.9L250.16 74.56L251.67 73.26L253.24 72.01L254.86 70.82L256.53 69.68L258.25 68.6L260.02 67.58L261.84 66.61L263.7 65.71L265.6 64.87L267.54 64.1L269.52 63.39L271.54 62.75L273.6 62.18L275.68 61.68L277.8 61.26L279.95 60.9L282.13 60.63L284.34 60.43L286.57 60.31L288.82 60.26L291.07 60.31L293.3 60.43L295.51 60.63L295.51 60.63L297.69 60.9Z" id="c1mSwSE7SY"></path><path d="M-369.99 572.41L896.47 572.41L896.47 418.4C821.68 427.09 759.52 429.64 710 426.03C635.72 420.62 580.08 395.96 412.88 404.39C245.67 412.83 198.74 435.1 72.25 420.3C-54.25 405.51 -80.44 382.76 -229.85 386.58C-329.45 389.12 -376.16 391.67 -369.99 394.21L-369.99 572.41Z" id="d2lBz8L5YV"></path><path d="M895.93 579.22L-370.53 579.22L-370.53 463.09C-295.73 469.65 -233.57 471.57 -184.05 468.85C-109.77 464.77 -54.14 446.18 113.07 452.54C280.28 458.9 327.21 475.69 453.7 464.53C580.19 453.38 606.39 436.22 755.79 439.1C855.4 441.02 902.11 442.94 895.93 444.86L895.93 579.22Z" id="c1RfBn1uvM"></path><path d="M896.88 592.98L-369.58 592.98L-369.58 525.28C-294.78 529.1 -232.62 530.22 -183.1 528.63C-108.82 526.25 -53.19 515.41 114.02 519.12C281.23 522.83 328.16 532.62 454.65 526.11C581.14 519.61 607.33 509.61 756.74 511.29C856.35 512.4 903.06 513.52 896.88 514.64L896.88 592.98Z" id="e7v8nWE1Q"></path><path d="M719.71 60.66L721.18 60.89L722.64 61.15L724.07 61.47L725.48 61.82L726.86 62.22L728.22 62.67L729.56 63.15L730.86 63.67L732.14 64.24L733.38 64.84L734.6 65.48L735.78 66.16L736.93 66.87L738.04 67.62L739.11 68.4L740.15 69.21L741.15 70.05L742.11 70.93L743.03 71.83L743.83 72.68L744.61 72.48L746.33 72.07L748.08 71.7L749.87 71.36L751.68 71.06L753.53 70.8L755.4 70.58L757.3 70.39L759.23 70.24L761.18 70.14L763.15 70.08L765.14 70.05L767.13 70.08L769.1 70.14L771.05 70.24L772.97 70.39L774.87 70.58L776.75 70.8L778.59 71.06L780.41 71.36L782.19 71.7L783.94 72.07L785.66 72.48L787.34 72.92L788.99 73.39L790.59 73.9L792.15 74.43L793.68 75L795.15 75.6L796.59 76.23L797.97 76.88L799.31 77.56L800.6 78.27L801.83 79.01L803.01 79.77L804.14 80.55L805.21 81.36L806.23 82.19L807.18 83.04L808.07 83.91L808.9 84.8L809.67 85.71L810.37 86.64L811.01 87.59L811.57 88.55L812.07 89.53L812.49 90.52L812.84 91.53L813.11 92.55L813.31 93.58L813.43 94.63L813.47 95.68L813.43 96.74L813.31 97.78L813.2 98.37L815.91 98.57L821.25 99.01L826.46 99.47L831.52 99.96L836.44 100.48L841.21 101.02L845.82 101.59L850.27 102.18L854.56 102.79L858.67 103.43L862.61 104.08L866.36 104.76L869.93 105.46L873.3 106.18L876.48 106.91L879.45 107.67L882.22 108.44L884.77 109.23L887.1 110.03L889.21 110.85L891.09 111.68L892.74 112.53L894.15 113.39L895.31 114.26L896.23 115.14L896.89 116.04L897.29 116.94L897.42 117.85L897.29 118.77L896.89 119.67L896.23 120.56L895.31 121.45L894.15 122.32L892.74 123.18L891.09 124.02L889.21 124.86L887.1 125.68L884.77 126.48L882.22 127.27L879.45 128.04L876.48 128.79L873.3 129.53L869.93 130.25L866.36 130.94L862.61 131.62L858.67 132.28L854.56 132.91L850.27 133.53L845.82 134.12L841.21 134.68L836.44 135.23L831.52 135.74L826.46 136.24L821.25 136.7L815.91 137.14L810.44 137.55L804.84 137.93L799.12 138.28L793.29 138.6L787.35 138.89L781.31 139.15L775.17 139.38L768.93 139.57L762.6 139.73L756.19 139.86L749.71 139.95L743.15 140.01L736.52 140.02L729.89 140.01L723.33 139.95L716.84 139.86L710.43 139.73L704.11 139.57L697.87 139.38L691.73 139.15L685.68 138.89L679.74 138.6L673.91 138.28L668.2 137.93L662.6 137.55L657.13 137.14L651.79 136.7L646.58 136.24L641.52 135.74L636.6 135.23L631.83 134.68L627.22 134.12L622.76 133.53L618.48 132.91L614.37 132.28L610.43 131.62L606.68 130.94L603.11 130.25L599.74 129.53L596.56 128.79L593.59 128.04L590.82 127.27L588.27 126.48L585.93 125.68L583.82 124.86L581.94 124.02L580.29 123.18L578.89 122.32L577.72 121.45L576.81 120.56L576.15 119.67L575.75 118.77L575.62 117.85L575.75 116.94L576.15 116.04L576.81 115.14L577.72 114.26L578.89 113.39L580.29 112.53L581.94 111.68L583.82 110.85L585.93 110.03L588.27 109.23L590.82 108.44L593.59 107.67L596.56 106.91L599.74 106.18L603.11 105.46L606.68 104.76L610.43 104.08L611.44 103.92L611.59 103.1L611.86 102.04L612.21 101L612.64 99.97L613.13 98.96L613.7 97.97L614.33 96.99L615.03 96.03L615.8 95.09L616.63 94.17L617.52 93.26L618.48 92.39L619.49 91.53L620.56 90.69L621.69 89.88L622.87 89.1L624.11 88.34L625.39 87.61L626.73 86.9L628.12 86.22L629.55 85.58L631.03 84.96L632.55 84.37L634.11 83.82L635.72 83.29L637.36 82.8L639.04 82.35L640.76 81.93L642.51 81.54L644.29 81.2L646.11 80.89L647.96 80.62L649.83 80.38L651.73 80.19L653.65 80.04L655.6 79.93L657.57 79.87L659.56 79.84L661.56 79.87L663.53 79.93L665.48 80.04L667.4 80.19L669.3 80.38L671.17 80.62L673.02 80.89L674.84 81.2L676.62 81.54L677.77 81.8L678.01 81.14L678.51 80.02L679.05 78.91L679.65 77.83L680.29 76.77L680.98 75.73L681.73 74.71L682.51 73.73L683.34 72.77L684.22 71.83L685.14 70.93L686.1 70.05L687.1 69.21L688.13 68.4L689.21 67.62L690.32 66.87L691.47 66.16L692.65 65.48L693.86 64.84L695.11 64.24L696.39 63.67L697.69 63.15L699.02 62.67L700.38 62.22L701.77 61.82L703.18 61.47L704.61 61.15L706.06 60.89L707.54 60.66L709.03 60.49L710.55 60.37L712.08 60.29L713.62 60.26L715.17 60.29L716.7 60.37L718.21 60.49L718.21 60.49L719.71 60.66Z" id="a1JWq7l4i"></path></defs><g><g><g><use xlink:href="#d2VgwxQBas" opacity="1" fill="#d8f5f1" fill-opacity="1"></use></g><g><use xlink:href="#b1FBskOHvB" opacity="1" fill="#8cbfda" fill-opacity="1"></use></g><g><use xlink:href="#j5E96ksib" opacity="1" fill="#8cbfda" fill-opacity="1"></use></g><g><use xlink:href="#dPg4N1Ha4" opacity="1" fill="#5ec1ec" fill-opacity="1"></use></g><g><use xlink:href="#c1mSwSE7SY" opacity="1" fill="#8cbfda" fill-opacity="1"></use></g><g><use xlink:href="#d2lBz8L5YV" opacity="1" fill="#3cb6ec" fill-opacity="1"></use></g><g><use xlink:href="#c1RfBn1uvM" opacity="1" fill="#33ade3" fill-opacity="1"></use></g><g><use xlink:href="#e7v8nWE1Q" opacity="1" fill="#1aa3e0" fill-opacity="1"></use></g><g><use xlink:href="#a1JWq7l4i" opacity="1" fill="#8cbfda" fill-opacity="1"></use></g></g></g></svg>